<svg width="313" height="47" viewBox="0 0 313 47" fill="none" xmlns="http://www.w3.org/2000/svg">
<g clip-path="url(#clip0_4_78)">
<path d="M0 0H7.69291V39.746H41.2152V47H0V0Z" fill="white"/>
<path d="M9.0844 7.75646V0H32.2632C39.756 0.969557 44.1335 11.6317 38.5558 18.4862V18.8711C44.0011 25.4729 39.4913 36.7315 32.2632 37.4601H9.0844V29.5509L29.7773 29.6214C32.8927 29.1161 33.2899 23.4985 29.7773 22.8169L9.0844 22.8904V14.4993L29.7773 14.467C32.7603 14.1732 33.1575 8.57323 29.7773 7.7447L9.0844 7.75646Z" fill="white"/>
<path d="M62.2023 4.55988H66.1385V21.3185H81.5478V23.8394H62.2023V4.55988Z" fill="white"/>
<path d="M87.9698 4.55988H84.7603V23.8394H87.9698V4.55988Z" fill="white"/>
<path d="M111.981 4.55988H92.5503V23.8394H112.025C114.508 23.8394 116.306 21.8297 116.306 19.9905V8.36465C116.306 6.49899 114.564 4.55988 111.981 4.55988ZM113.437 19.9494C113.223 20.9336 112.214 21.3156 111.169 21.3156H95.0744V7.12479H111.255C112.399 7.35102 113.158 7.921 113.437 8.91994V19.9494Z" fill="white"/>
<path d="M140.19 7.12479V4.55988H120.242V23.8394H140.19V21.3185H123.069V15.2044H140.19V12.4691H123.069V7.12479H140.19Z" fill="white"/>
<path d="M161.419 4.55988H143.329V23.8394H146.583V15.2044H156.912L161.763 23.8394H165.243L160.792 15.2044C167.405 15.2044 167.811 4.90069 161.419 4.55988ZM146.583 12.4691V7.12479H160.221C163.702 7.4186 163.81 12.4691 160.221 12.4691H146.583Z" fill="white"/>
<path d="M201.999 14.2055V13.6178C204.679 13.1448 205.843 4.55396 199.939 4.55396H182.765V23.8334H200.228C205.949 23.8393 205.535 14.5639 201.999 14.2055ZM185.848 7.13063H199.38C201.54 7.13063 201.54 12.4749 199.38 12.4749H185.848V7.13063ZM199.38 21.3214H185.848V15.2044H199.251C199.333 15.2041 199.414 15.217 199.492 15.2426C202.499 16.2445 201.963 20.6427 199.371 21.3155L199.38 21.3214Z" fill="white"/>
<path d="M231.446 23.8394L244.414 4.55988H247.112L259.609 23.8394H255.158L245.785 8.49393H245.205L235.441 23.8394H231.446Z" fill="white"/>
<path d="M260.665 23.8394V21.3185H278.928C280.634 21.3185 280.919 15.2074 278.928 15.2074H263.336C258.479 15.2074 258.65 4.56281 263.507 4.56281H282.455V7.12773H265.504C262.874 7.12773 262.818 12.472 265.278 12.472H279.487C285.417 12.472 285.188 23.8423 279.431 23.8423L260.665 23.8394Z" fill="white"/>
<path d="M290.286 4.55988H286.462V23.8394H290.286V4.55988Z" fill="white"/>
<path d="M294.11 4.55988H297.476V21.3185H313V23.8394H294.11V4.55988Z" fill="white"/>
<path d="M225.922 4.55988H207.829V23.8394H211.083V15.2044H221.412L226.263 23.8394H229.746L225.295 15.2044C231.911 15.2044 232.317 4.90069 225.922 4.55988ZM211.083 12.4691V7.12479H224.721C228.204 7.4186 228.313 12.4691 224.721 12.4691H211.083Z" fill="white"/>
<path d="M112.767 31.6898H101.052V43.3127H112.793C113.115 43.3318 113.438 43.2867 113.743 43.1801C114.048 43.0736 114.328 42.9077 114.568 42.6921C114.808 42.4764 115.003 42.2153 115.141 41.924C115.279 41.6326 115.358 41.3167 115.373 40.9946V33.9844C115.373 32.7152 114.338 31.6898 112.767 31.6898ZM113.649 40.9682C113.523 41.5558 112.914 41.7938 112.284 41.7938H102.576V33.2382H112.331C113.023 33.3733 113.479 33.7171 113.646 34.3194L113.649 40.9682Z" fill="white"/>
<path d="M119.768 31.6898H117.832V43.3127H119.768V31.6898Z" fill="white"/>
<path d="M163.737 31.6898H152.937V43.2011H154.879V38.0448H161.057L163.955 43.2011H166.032L163.384 38.0448C167.311 38.0448 167.553 31.8955 163.737 31.6898ZM154.879 36.4113V33.2205H163.022C165.102 33.3909 165.164 36.4113 163.022 36.4113H154.879Z" fill="white"/>
<path d="M170.285 31.7045H168.35V43.3275H170.285V31.7045Z" fill="white"/>
<path d="M184.571 37.5747V37.228C186.189 36.9342 186.892 31.7632 183.333 31.7632H172.968V43.3862H183.497C186.957 43.3862 186.819 37.7099 184.571 37.5747ZM174.834 33.3028H182.988C184.292 33.3028 184.292 36.5346 182.988 36.5346H174.834V33.3028ZM182.988 41.8613H174.834V38.1799H182.988C184.883 38.7382 184.571 41.4529 182.988 41.8672V41.8613Z" fill="white"/>
<path d="M206.985 31.7045H205.04V43.3745H206.985V31.7045Z" fill="white"/>
<path d="M221.776 31.634H210.062V43.2569H221.803C223.442 43.2569 224.383 42.1346 224.383 40.9388V33.9286C224.383 32.8151 223.227 31.634 221.776 31.634ZM222.659 40.9123C222.53 41.4999 221.921 41.735 221.291 41.735H211.583V33.1794H221.335C222.027 33.3175 222.483 33.6612 222.653 34.2635L222.659 40.9123Z" fill="white"/>
<path d="M254.805 31.6898H244.002V43.2011H245.947V38.0448H252.125L255.019 43.2011H257.099L254.452 38.0448C258.379 38.0448 258.62 31.8955 254.805 31.6898ZM245.947 36.4113V33.2205H254.09C256.167 33.3909 256.231 36.4113 254.09 36.4113H245.947Z" fill="white"/>
<path d="M258.108 43.3744L265.969 31.6898H267.602L275.177 43.3744H272.479L266.798 34.0755H266.448L260.529 43.3744H258.108Z" fill="white"/>
<path d="M133.433 36.2908H125.196C125.062 36.2908 124.929 36.2644 124.806 36.2131C124.682 36.1619 124.57 36.0867 124.475 35.992C124.381 35.8973 124.306 35.7849 124.255 35.6612C124.204 35.5376 124.178 35.405 124.178 35.2713V34.4046C124.178 34.142 124.282 33.8901 124.468 33.7044C124.654 33.5188 124.906 33.4145 125.169 33.4145H135.554V31.6898H124.852C124.471 31.6898 124.095 31.7647 123.743 31.9102C123.392 32.0556 123.073 32.2689 122.804 32.5376C122.535 32.8064 122.322 33.1254 122.176 33.4765C122.031 33.8276 121.957 34.2039 121.957 34.5838V35.2419C121.957 35.9645 122.244 36.6576 122.755 37.1688C123.267 37.6801 123.96 37.9677 124.684 37.9684H132.921C133.225 37.9684 133.516 38.0888 133.73 38.3032C133.945 38.5175 134.066 38.8082 134.066 39.1113V40.5216C134.066 40.8247 133.945 41.1154 133.73 41.3298C133.516 41.5441 133.225 41.6645 132.921 41.6645H122.348V43.3744H133.183C134.786 43.3744 136.125 42.2345 136.125 41.2914V38.9762C136.124 38.2637 135.84 37.5807 135.335 37.0772C134.831 36.5736 134.146 36.2908 133.433 36.2908Z" fill="white"/>
<path d="M137.022 31.7045V33.4145H143.185V43.3745H145.412V33.4145H151.275V31.7045" fill="white"/>
<path d="M238.666 31.634H229.452C228.665 31.634 227.91 31.9463 227.353 32.5023C226.796 33.0582 226.483 33.8122 226.483 34.5985V40.4099C226.483 41.1962 226.796 41.9502 227.353 42.5061C227.91 43.0621 228.665 43.3744 229.452 43.3744H238.669C239.456 43.3744 240.211 43.0621 240.767 42.5061C241.324 41.9502 241.637 41.1962 241.637 40.4099V34.5985C241.637 34.2089 241.56 33.8232 241.411 33.4633C241.261 33.1035 241.042 32.7765 240.766 32.5012C240.49 32.2259 240.163 32.0076 239.802 31.8588C239.442 31.71 239.056 31.6336 238.666 31.634ZM239.407 40.2542C239.407 40.6282 239.258 40.9869 238.993 41.2514C238.729 41.5159 238.369 41.6645 237.995 41.6645H230.12C229.745 41.6645 229.386 41.5159 229.121 41.2514C228.856 40.9869 228.707 40.6282 228.707 40.2542V34.6984C228.707 34.5129 228.743 34.3292 228.814 34.1578C228.885 33.9863 228.989 33.8305 229.12 33.6993C229.251 33.568 229.407 33.4638 229.578 33.3928C229.75 33.3217 229.934 33.2852 230.12 33.2852H237.983C238.169 33.2852 238.353 33.3217 238.524 33.3928C238.696 33.4638 238.851 33.568 238.983 33.6993C239.114 33.8305 239.218 33.9863 239.289 34.1578C239.359 34.3292 239.396 34.5129 239.395 34.6984L239.407 40.2542Z" fill="white"/>
<path d="M200.542 31.7633V40.595C200.542 40.8787 200.429 41.1507 200.229 41.3513C200.028 41.5518 199.755 41.6645 199.471 41.6645H191.502C191.173 41.6645 190.857 41.5339 190.624 41.3014C190.391 41.0688 190.261 40.7535 190.261 40.4246V31.7633H188.201V40.8154C188.201 41.4972 188.472 42.1511 188.955 42.6332C189.438 43.1153 190.093 43.3862 190.775 43.3862H200.522C201.113 43.3862 201.681 43.1516 202.1 42.7341C202.518 42.3165 202.754 41.7501 202.755 41.1591V31.7574L200.542 31.7633Z" fill="white"/>
</g>
<defs>
<clipPath id="clip0_4_78">
<rect width="313" height="47" fill="white"/>
</clipPath>
</defs>
</svg>
