<svg width="295" height="39" viewBox="0 0 295 39" fill="none" xmlns="http://www.w3.org/2000/svg">
<path d="M214.106 0.187173C208.455 -9.61125e-06 202.347 3.21774 199.449 9.27591C197.651 12.6957 196.278 16.5017 195.366 20.2395C195.285 20.5676 195.208 20.8969 195.138 21.2274C195.047 21.7592 195.04 22.4411 195.088 23.1363C195.312 26.0778 197.951 29.6342 202.302 29.8363H207.46C213.109 30.022 219.215 26.8027 222.115 20.7445C223.914 17.3248 225.284 13.5157 226.197 9.78101C226.278 9.44824 226.356 9.11844 226.425 8.79162C226.52 8.2583 226.526 7.57939 226.475 6.88266C226.253 3.93973 223.612 0.38624 219.263 0.185687H214.105L214.106 0.187173ZM117.225 0.457547L119.535 29.5481H124.168H124.141H124.414C124.859 29.5338 125.293 29.4148 125.682 29.2009C126.07 28.9869 126.402 28.6842 126.648 28.318H126.651L145.54 0.459033H140.655L127.124 20.4549L125.536 0.460518H117.223L117.225 0.457547ZM148.916 0.457547L138.076 29.5481H146.397L157.233 0.459033H148.916V0.457547ZM168.44 0.457547C160.966 0.546682 157.663 8.77676 161.746 14.0476C163.818 16.5508 166.776 19.1461 168.446 21.887C169.505 23.3696 168.373 25.8416 166.351 25.8653H153.153L151.787 29.5481H168.496C175.046 29.5287 179.478 21.8974 175.082 16.0442C173.054 13.079 169.837 11.0541 167.933 8.15728C166.803 6.64645 167.939 4.16554 169.984 4.1388H182.267L183.635 0.457547H168.442H168.44ZM189.394 0.457547L178.561 29.5495H186.879L197.717 0.459033H189.394V0.457547ZM234.309 0.457547L223.424 29.5481H227.712L235.212 9.49875L235.25 9.85826L241.988 27.8634C242.191 28.3403 242.526 28.7511 242.954 29.049C243.381 29.3468 243.885 29.5198 244.408 29.5481H248.327L259.215 0.459033H254.928L247.572 20.1191L239.737 0.459033H234.307L234.309 0.457547ZM216.007 3.19397C217.575 3.31282 218.822 4.61864 218.822 6.20226C218.834 6.59148 218.766 6.97625 218.619 7.32833L213.121 22.1425C212.012 24.9859 209.434 26.7284 206.371 26.8176H205.559C204.794 26.7572 204.08 26.4141 203.558 25.8565C203.037 25.2989 202.746 24.5675 202.744 23.8078C202.731 23.4213 202.801 23.0363 202.95 22.6788L208.445 7.86462C209.556 5.02123 212.133 3.28311 215.2 3.19546H216.007V3.19397Z" fill="#6C6E71"/>
<path d="M40.1136 0.459026L29.2744 29.5495H38.1094L43.2933 15.6371H53.8111L48.6273 29.5495H55.5286C56.6966 29.5495 57.6994 28.8201 58.1063 27.8025C58.1108 27.7876 58.1153 27.7832 58.1213 27.7758L68.2999 0.45754H59.4649L55.2914 11.6588H44.7735L48.947 0.45754H40.1136V0.459026ZM73.9131 0.459026L63.077 29.5495H71.9074L82.7466 0.459026H73.9116H73.9131ZM88.7561 0.459026L77.9185 29.5495H86.7504L90.906 18.3929L93.1128 16.7157L98.9723 27.9555L98.9753 27.9407L98.9903 27.9674C99.2321 28.4642 99.6184 28.8781 100.1 29.156C100.581 29.4339 101.135 29.5632 101.691 29.5273C101.67 29.5273 101.646 29.5421 101.624 29.5421H109.124L99.7935 11.6365L114.51 0.456055H107.909L93.5122 11.3943L97.5881 0.456055H88.7561V0.459026Z" fill="#D71820"/>
<path d="M265.726 3.03061C265.726 4.65137 264.441 5.92153 262.768 5.92153C261.114 5.92153 259.796 4.65137 259.796 3.03061C259.796 1.44401 261.114 0.172363 262.768 0.172363C264.441 0.172363 265.726 1.44401 265.726 3.03061ZM260.534 3.03061C260.534 4.30226 261.483 5.31245 262.786 5.31245C264.055 5.31245 264.987 4.30226 264.987 3.04695C264.987 1.77678 264.055 0.74728 262.768 0.74728C261.482 0.74728 260.534 1.77678 260.534 3.03061ZM262.31 4.52807H261.642V1.67279C262.009 1.6081 262.381 1.57825 262.753 1.58366C263.297 1.58366 263.544 1.67279 263.754 1.79461C263.846 1.87153 263.918 1.96784 263.967 2.07637C264.016 2.1849 264.039 2.30287 264.035 2.42152C264.035 2.73646 263.789 2.97861 263.436 3.0826V3.11826C263.718 3.22225 263.878 3.4332 263.966 3.81648C264.055 4.25175 264.107 4.42556 264.176 4.52955H263.456C263.367 4.42556 263.315 4.1641 263.226 3.8343C263.173 3.51936 262.998 3.3812 262.628 3.3812H262.31V4.52955V4.52807ZM262.328 2.90879H262.644C263.014 2.90879 263.315 2.78697 263.315 2.48986C263.315 2.22988 263.121 2.05607 262.698 2.05607C262.523 2.05607 262.399 2.07093 262.328 2.09024V2.90731V2.90879Z" fill="#6C6E71"/>
</svg>
