<svg width="161" height="84" viewBox="0 0 161 84" fill="none" xmlns="http://www.w3.org/2000/svg">
<path d="M161 67.2343V61.748H146.997V83.5603H161V78.1725H154.232V75.1661H160.643V70.227H154.232V67.2343H161Z" fill="#0B356D"/>
<path d="M137.515 61.748H129.806V83.5603H144.306V76.9933H137.515V61.748Z" fill="#0B356D"/>
<path d="M122.841 72.6542V71.9352C127.716 70.859 126.981 61.487 118.898 61.748H108.451V83.5603H119.233C129.174 84.348 128.604 73.7097 122.841 72.6542ZM115.132 66.8382H117.158C119.423 66.8382 119.033 70.4468 117.158 70.4468H115.132V66.8382ZM117.158 78.7266H115.132V74.802H117.158C120.76 74.8455 120.245 78.4564 117.158 78.7266Z" fill="#0B356D"/>
<path d="M83.899 61.7436L88.3798 66.4033L82.1108 83.5971H89.923L91.1731 80.5746H97.2132L98.4564 83.5971H105.857L98.2664 61.739L83.899 61.7436ZM92.0684 76.0203L94.0787 68.7388L96.089 76.0203H92.0684Z" fill="#0B356D"/>
<path d="M82.6557 79.9814L76.3088 75.6927V75.7041C75.9265 76.2374 75.4241 76.6732 74.8422 76.9763C74.2603 77.2794 73.6152 77.4413 72.9591 77.4489C70.5802 77.4489 68.6523 75.3492 68.6523 72.7595C68.6523 70.1697 70.5802 68.0723 72.9591 68.0723C73.5345 68.0761 74.1027 68.2002 74.6271 68.4368C75.1516 68.6735 75.6207 69.0173 76.0043 69.4462L82.2527 65.0407C79.7606 62.6958 76.4585 61.4053 73.0369 61.4389C66.0879 61.4389 60.6729 66.4901 60.6729 72.7182C60.6729 78.9464 66.0948 83.9999 73.0369 83.9999C76.8881 83.9999 80.3432 82.4314 82.6557 79.9814Z" fill="#0B356D"/>
<path d="M60.9385 48.1149C61.3575 54.5537 67.0519 59.4263 73.6574 58.9981C80.263 58.5699 85.2796 53.0012 84.8606 46.5624C84.8377 46.2121 84.7965 45.8755 84.7438 45.5251L72.8996 45.5457V50.5054H76.2722C75.5327 52.0029 74.2115 53.0012 72.7072 53.0012C70.3901 53.0012 68.5126 50.6496 68.5126 47.7462C68.5126 44.8428 70.3901 42.4935 72.7072 42.4797C74.2734 42.4797 75.6357 43.0797 76.3958 44.0299L83.425 41.2593C81.2315 37.5041 76.8721 35.3609 72.144 35.6677C65.5384 36.1073 60.5218 41.6738 60.9385 48.1149Z" fill="#C23036"/>
<path d="M50.9649 47.5493L50.4543 48.4033L43.2786 36.3638H35.9037V58.1623H42.6306L42.6146 47.6821L43.2168 46.7959L57.685 70.669V36.3638H50.9649V47.5493Z" fill="#C23036"/>
<path d="M24.2197 58.2264H31.9129V36.3638H24.1877L24.2197 58.2264Z" fill="#C23036"/>
<path d="M21.2111 36.3638H12.5998L7.72522 45.5297V36.3638H0V58.2264H7.66111L7.69316 48.5705L13.202 58.2264H21.5294L14.4041 47.2951L21.2111 36.3638Z" fill="#C23036"/>
<path d="M24.4555 30.4172C24.6175 30.6568 24.8364 30.8525 25.0925 30.9867C25.3486 31.121 25.634 31.1897 25.9232 31.1866H55.1938C55.4776 31.1892 55.7578 31.1229 56.0103 30.9933C56.2628 30.8636 56.48 30.6746 56.6432 30.4424C59.1366 26.8269 57.8842 19.6553 70.0078 7.9867L57.527 8.93008C57.3709 8.94218 57.222 9.00079 57.0996 9.09834C56.9772 9.19589 56.8868 9.3279 56.8401 9.47733L55.5533 13.5096C55.5359 13.5637 55.5344 13.6216 55.549 13.6764C55.5637 13.7313 55.5938 13.7808 55.6359 13.819C55.6779 13.8572 55.73 13.8824 55.7861 13.8917C55.8421 13.901 55.8996 13.8939 55.9517 13.8714L61.2453 11.5816C62.0215 11.2267 61.3255 14.2034 60.9133 14.4324C54.4909 18.9524 58.7428 20.2713 44.9958 21.2009C44.7971 21.2148 44.5995 21.1604 44.4359 21.0467C44.2723 20.9331 44.1524 20.7669 44.096 20.5758L41.6713 12.3029C41.6629 12.2737 41.6616 12.2429 41.6675 12.2131C41.6733 12.1832 41.6862 12.1552 41.7049 12.1313C41.7237 12.1074 41.7479 12.0883 41.7755 12.0755C41.803 12.0628 41.8332 12.0567 41.8636 12.0579L42.3215 12.0739C42.43 12.0776 42.5356 12.1092 42.6284 12.1655C51.7136 17.661 51.5808 4.66654 44.2586 9.86201C44.0296 10.0223 43.6381 10.0658 43.274 10.1414C43.2105 10.1542 43.1451 10.1538 43.0817 10.1403C43.0184 10.1268 42.9584 10.1005 42.9057 10.0629C42.8529 10.0254 42.8084 9.97742 42.7748 9.92199C42.7413 9.86656 42.7195 9.80484 42.7108 9.74066L42.6123 9.02167C42.5903 8.86559 42.6142 8.70648 42.681 8.56372C43.8258 6.13199 44.8882 6.00834 44.5287 4.14218C43.906 1.57078 42.6329 0.334306 40.9043 0.0228976V0L40.8424 0.0114488H40.7783V0.0228976C39.0497 0.334306 37.7789 1.57078 37.1699 4.14447C36.8081 6.01063 37.8568 6.13428 39.0153 8.56601C39.0821 8.70877 39.106 8.86788 39.084 9.02396L38.9855 9.74295C38.9768 9.80713 38.955 9.86885 38.9215 9.92428C38.888 9.97971 38.8434 10.0277 38.7907 10.0652C38.7379 10.1028 38.678 10.1291 38.6146 10.1426C38.5512 10.1561 38.4858 10.1565 38.4223 10.1437C38.0605 10.0681 37.6621 10.0246 37.4378 9.8643C30.1109 4.66883 29.9827 17.6609 39.068 12.1678C39.1608 12.1117 39.2664 12.0802 39.3748 12.0762L39.8327 12.0602C39.8631 12.059 39.8933 12.0651 39.9209 12.0778C39.9485 12.0906 39.9726 12.1097 39.9914 12.1336C40.0101 12.1575 40.023 12.1855 40.0288 12.2154C40.0347 12.2452 40.0334 12.276 40.025 12.3052L37.5889 20.5896C37.5317 20.7806 37.4112 20.9466 37.2473 21.0602C37.0834 21.1738 36.8857 21.2282 36.6868 21.2147C22.949 20.285 27.2993 18.8493 20.8883 14.3271C20.4785 14.0981 19.6382 10.8924 20.4143 11.2405L25.74 13.8806C25.7926 13.9017 25.8502 13.9073 25.9059 13.8966C25.9615 13.8859 26.013 13.8595 26.054 13.8203C26.0951 13.7812 26.124 13.7311 26.1373 13.676C26.1507 13.6209 26.1479 13.5632 26.1293 13.5096L24.8448 8.87971C24.7976 8.73059 24.707 8.59891 24.5847 8.50145C24.4624 8.40399 24.3138 8.34516 24.1579 8.33245L11.1436 6.77541C23.2581 18.4326 21.9805 26.6506 24.4555 30.4172Z" fill="#E6B54A"/>
</svg>
