<svg width="185" height="35" viewBox="0 0 185 35" fill="none" xmlns="http://www.w3.org/2000/svg">
<g clip-path="url(#clip0_22_12180)">
<path fill-rule="evenodd" clip-rule="evenodd" d="M107.69 25.1672L83.8664 25.1861C82.2861 25.1857 80.7459 24.6749 79.4642 23.726C78.1825 22.777 77.2244 21.4382 76.7256 19.8991L76.445 18.5939C76.445 18.5444 76.4289 18.4948 76.422 18.4429H66.8526C66.8526 18.4948 66.8526 18.5444 66.8526 18.5939L66.9768 19.8637C68.2095 28.3606 75.1226 35 83.8549 35L107.685 34.9858C108.625 34.9855 109.544 34.6996 110.325 34.1642C111.106 33.6287 111.716 32.8677 112.076 31.9771C112.437 31.0866 112.532 30.1064 112.35 29.1603C112.168 28.2143 111.718 27.3446 111.055 26.6612C110.158 25.7405 108.953 25.206 107.685 25.1672H107.69ZM-0.000125095 18.4429V30.2984C-0.012657 30.9124 0.0978427 31.5225 0.324523 32.0909C0.551204 32.6593 0.889234 33.1739 1.31766 33.6027C2.24924 34.5041 3.48718 34.9962 4.76735 34.974C6.03565 34.9944 7.26139 34.5047 8.18254 33.6098C8.61252 33.1811 8.95293 32.667 9.18305 32.0989C9.41316 31.5309 9.52816 30.9206 9.52102 30.3054V18.4429H-0.000125095ZM35.7525 18.4429L30.7573 24.9335L25.7714 18.4429H13.8745L24.7273 32.5217C25.822 33.8104 28.0942 34.7026 30.1847 34.882C30.3202 34.9035 30.4569 34.9153 30.594 34.9174H30.663H30.7527H30.8424H30.9137C31.0218 34.9174 31.1207 34.8961 31.2265 34.889C33.3423 34.7451 35.6674 33.8458 36.7805 32.5288L47.6608 18.4452L35.7525 18.4429ZM52.0028 18.4429V30.322C51.9945 30.9367 52.1083 31.5467 52.3372 32.1148C52.5662 32.6829 52.9054 33.1972 53.3344 33.6263C54.253 34.5242 55.4789 35.015 56.7473 34.9929C58.0268 35.0164 59.2647 34.526 60.197 33.6263C60.627 33.1979 60.9671 32.6838 61.1965 32.1155C61.4259 31.5473 61.5397 30.937 61.5309 30.322V18.4429H52.0028ZM169.826 18.4429V30.322C169.817 30.9368 169.931 31.5469 170.16 32.1151C170.388 32.6833 170.728 33.1975 171.157 33.6263C172.076 34.5242 173.302 35.015 174.57 34.9929C175.85 35.0159 177.087 34.5256 178.02 33.6263C178.45 33.1976 178.789 32.6834 179.019 32.1152C179.248 31.5471 179.362 30.9369 179.354 30.322V18.4429H169.826ZM153.576 18.4429L148.58 24.9335L143.594 18.4429H131.695L142.55 32.5217C143.645 33.8104 145.917 34.7026 148.005 34.882C148.142 34.9034 148.279 34.9152 148.417 34.9174H148.486H148.576H148.665H148.734C148.845 34.9174 148.944 34.8961 149.047 34.889C151.165 34.7451 153.488 33.8458 154.604 32.5288C154.604 32.5288 160.983 24.268 165.484 18.4452L153.576 18.4429ZM117.821 18.4429V30.2984C117.808 30.9126 117.919 31.5228 118.146 32.0912C118.373 32.6596 118.712 33.1741 119.141 33.6027C120.077 34.4822 121.3 34.9701 122.569 34.9701C123.838 34.9701 125.06 34.4822 125.996 33.6027C126.426 33.1738 126.766 32.6597 126.996 32.0916C127.226 31.5236 127.342 30.9135 127.335 30.2984V18.4429H117.821ZM9.51182 16.5547V13.8735C9.51182 13.8735 9.51182 13.104 9.52792 12.8113C9.53942 12.8255 10.7215 14.3549 12.4165 16.5547H24.3202L14.231 3.42467C13.411 2.52249 12.4838 1.72954 11.4712 1.06443C10.2919 0.351831 8.94372 -0.0124661 7.5754 0.0117614C5.3009 0.0117614 3.25178 0.849648 1.9248 2.50654C0.648417 4.0997 -0.000125095 6.04689 -0.000125095 8.30092V16.5618L9.51182 16.5547ZM166.942 16.5547C168.635 14.3644 169.812 12.8444 169.826 12.8279V16.5547H179.347V8.31745C179.347 6.06578 178.708 4.11622 177.429 2.51834C176.107 0.866167 174.057 0.0212021 171.783 0.0188418C170.417 0.00246803 169.072 0.371498 167.896 1.08567C166.883 1.75017 165.956 2.54318 165.137 3.44591L155.04 16.5594L166.942 16.5547ZM184.972 9.07036L185 9.61558L184.972 9.07036ZM185 8.17347H184.972L185 8.00118V8.17347ZM127.335 16.5547V13.8735C127.335 13.8735 127.335 13.104 127.349 12.8113C127.362 12.8255 128.542 14.3549 130.24 16.5547H142.143L132.047 3.42467C131.227 2.52249 130.3 1.72954 129.287 1.06443C128.11 0.353775 126.764 -0.010425 125.398 0.0117614C123.124 0.0117614 121.077 0.849648 119.748 2.50654C118.469 4.0997 117.821 6.04689 117.821 8.30092V16.5618L127.335 16.5547ZM49.1189 16.5547L52.0143 12.8279V16.5547H61.5354V8.31745C61.5354 6.06578 60.8961 4.11622 59.6197 2.51834C58.2927 0.866167 56.2459 0.0212021 53.9714 0.0188418C52.6051 0.00246803 51.2607 0.371498 50.0848 1.08567C49.0678 1.74936 48.1366 2.5424 47.3135 3.44591L37.2174 16.5594L49.1189 16.5547ZM66.8825 16.5547C67.4712 7.50316 74.5316 -4.05224e-05 83.8596 -4.05224e-05H107.69C108.323 -0.0143266 108.952 0.101211 109.54 0.339788C110.129 0.578364 110.665 0.935173 111.117 1.38928C111.569 1.84339 111.929 2.38564 112.174 2.98422C112.42 3.5828 112.546 4.22565 112.546 4.87504C112.546 5.52442 112.42 6.16727 112.174 6.76585C111.929 7.36443 111.569 7.90668 111.117 8.36079C110.665 8.8149 110.129 9.17171 109.54 9.41029C108.952 9.64886 108.323 9.7644 107.69 9.75011H83.8664C82.0252 9.74942 80.2475 10.4416 78.8701 11.6956C77.4927 12.9496 76.611 14.6784 76.3921 16.5547H66.8825Z" fill="#004E8C"/>
</g>
<defs>
<clipPath id="clip0_22_12180">
<rect width="185" height="35" fill="white"/>
</clipPath>
</defs>
</svg>
