<svg width="132" height="82" viewBox="0 0 132 82" fill="none" xmlns="http://www.w3.org/2000/svg">
<path d="M66.25 65.5901C63.7649 65.6146 61.2847 65.5803 58.8045 65.4429C55.7214 65.2762 52.6481 65.0065 49.5846 64.6092C42.7664 63.7215 36.0856 62.2502 29.5615 60.0727C24.557 58.4053 19.7681 56.2621 15.3077 53.4225C12.6559 51.7354 10.1365 49.8718 7.93078 47.6109C5.46528 45.0852 3.54875 42.2112 2.42139 38.8469C0.86268 34.1976 1.36264 29.7347 3.71051 25.4581C5.05354 23.0158 6.84753 20.9217 8.84248 18.9943C11.857 16.0909 15.3126 13.8104 19.0133 11.8928C24.7825 8.9061 30.8408 6.70897 37.1394 5.1396C40.6882 4.25192 44.281 3.58983 47.9082 3.10431C50.2561 2.79043 52.6137 2.57955 54.9714 2.37357C58.4417 2.0695 61.917 1.99593 65.3971 1.87823C67.3234 1.81448 69.2498 1.77034 71.181 1.82428C72.7642 1.86842 74.3425 1.99103 75.9208 2.13816C77.3031 2.26567 78.6804 2.42751 80.0627 2.57464C82.2047 2.80515 84.3369 3.12883 86.4593 3.49665C90.5472 4.20287 94.5861 5.12488 98.5613 6.32644C103.286 7.75359 107.909 9.45538 112.3 11.7359C116.56 13.9526 120.457 16.6696 123.824 20.1173C125.883 22.2311 127.603 24.5754 128.726 27.3267C129.574 29.4061 130.025 31.5738 130.034 33.82C130.049 36.8852 129.172 39.715 127.633 42.3486C126 45.144 123.873 47.5226 121.447 49.6462C118.403 52.3141 114.977 54.3984 111.354 56.1738C105.644 58.9693 99.674 61.0438 93.4931 62.5298C89.7924 63.4175 86.0475 64.0795 82.2733 64.5651C80.1509 64.8348 78.0236 65.0457 75.8865 65.2026C72.6858 65.4331 69.4703 65.5852 66.25 65.5901ZM64.7256 61.7402C68.7204 61.7402 72.2446 61.6274 75.764 61.3724C78.1413 61.2007 80.5136 60.9604 82.8762 60.6416C86.0475 60.2101 89.1944 59.6412 92.3069 58.9006C97.88 57.5813 103.296 55.8011 108.512 53.4127C112.335 51.6618 115.908 49.5089 119.03 46.6693C120.692 45.1587 122.246 43.5452 123.452 41.6374C125.275 38.7537 126.089 35.6101 125.721 32.2016C125.451 29.7004 124.545 27.4248 123.128 25.3551C121.545 23.0403 119.604 21.0688 117.393 19.3523C114.707 17.2679 111.756 15.625 108.708 14.1537C102.032 10.9267 94.9733 8.9012 87.6994 7.60156C84.1947 6.97381 80.6656 6.5128 77.1217 6.19893C74.421 5.95861 71.7104 5.80658 68.9998 5.75263C64.7158 5.66436 60.4416 5.77715 56.1674 6.10574C53.5941 6.30192 51.0256 6.55204 48.4719 6.89534C44.5359 7.425 40.644 8.16555 36.8012 9.17093C31.4192 10.5687 26.2088 12.4519 21.2288 14.9482C17.9104 16.6108 14.8077 18.5872 12.0971 21.1473C10.3179 22.8294 8.74445 24.6784 7.54356 26.8215C6.57304 28.5528 5.92603 30.3919 5.74467 32.3732C5.56331 34.3693 5.8378 36.3163 6.48481 38.2093C7.41612 40.9263 8.98953 43.2264 10.9943 45.247C13.5676 47.8414 16.5184 49.9355 19.6897 51.7354C23.4247 53.8541 27.3901 55.4431 31.4781 56.7427C37.855 58.7731 44.3693 60.1855 51.0158 60.9849C53.496 61.2841 55.986 61.495 58.481 61.6225C60.7161 61.7304 62.9512 61.7794 64.7256 61.7402Z" fill="#2928AE"/>
<path d="M95.3851 72.0147C95.4733 71.3918 95.4733 71.3771 96.1056 71.3967C96.4242 71.4066 96.831 71.2496 97.0467 71.4899C97.2379 71.7008 97.1055 72.0882 97.1055 72.3923C97.1104 73.9421 97.1055 75.4967 97.1104 77.0465C97.1104 77.4536 97.0859 77.8606 97.0222 78.2677C96.8702 79.2142 96.3556 79.8518 95.4096 80.0872C94.4587 80.3275 93.498 80.3079 92.5568 80.043C91.7285 79.8076 91.2138 79.1554 91.1893 78.3854C91.1795 78.0568 91.2138 78.0176 91.552 78.047C91.9441 78.0813 92.3314 78.1353 92.7186 78.1745C92.9833 78.199 93.2284 78.2235 93.2921 78.5619C93.3166 78.6944 93.4587 78.7679 93.5862 78.7924C94.0077 78.8807 94.4293 78.8856 94.841 78.7287C95.091 78.6355 95.2233 78.4393 95.2821 78.1843C95.3704 77.8018 95.3262 77.4143 95.3409 77.0318C95.1645 77.0024 95.1106 77.1299 95.0322 77.1985C94.0224 78.0323 92.5961 77.9048 91.7481 76.9092C91.5226 76.6443 91.3461 76.355 91.2285 76.0264C90.8658 74.9867 90.8658 73.9372 91.253 72.9073C91.7432 71.6027 93.1303 70.9505 94.3998 71.3771C94.7724 71.4997 95.0763 71.7351 95.3851 72.0147ZM92.797 74.4276C92.7823 74.7268 92.8166 75.0161 92.8951 75.3006C93.0519 75.8548 93.4538 76.2177 93.944 76.252C94.4636 76.2912 94.9586 75.9872 95.1694 75.4575C95.439 74.7807 95.4292 74.0843 95.1645 73.4075C94.9684 72.9073 94.5224 72.6277 94.0224 72.6375C93.5274 72.6473 93.1058 72.9612 92.9294 73.4664C92.8215 73.7802 92.7774 74.099 92.797 74.4276Z" fill="#2928AE"/>
<path d="M3.6909 73.4125C3.6909 72.1373 3.6909 70.8671 3.6909 69.592C3.6909 69.0967 3.6958 69.0967 4.16145 69.0967C5.2202 69.0967 6.28384 69.1016 7.34259 69.1065C7.65139 69.1065 7.96019 69.131 8.26899 69.1751C9.27382 69.3272 10.0287 70.0285 10.2492 71.0143C10.3375 71.4164 10.3669 71.8235 10.313 72.2305C10.1365 73.54 9.2199 74.3933 7.88667 74.4963C7.22005 74.5454 6.54853 74.5748 5.88191 74.5552C5.62703 74.5454 5.5437 74.6385 5.5486 74.8936C5.56331 75.693 5.55351 76.4924 5.55351 77.2918C5.55351 77.7283 5.5486 77.7332 5.13197 77.7332C4.75455 77.7381 4.38202 77.7234 4.0046 77.7381C3.77423 77.743 3.6811 77.6596 3.686 77.4242C3.6958 76.9043 3.6909 76.3796 3.6909 75.8597C3.686 75.0456 3.6909 74.2266 3.6909 73.4125ZM5.55351 71.7891C5.55351 72.0834 5.56331 72.3777 5.5486 72.667C5.5388 72.873 5.61232 72.9662 5.828 72.9613C6.34756 72.9417 6.87204 72.9564 7.3916 72.9122C8.01411 72.8583 8.38663 72.4463 8.40623 71.8627C8.42584 71.235 8.09743 70.8377 7.44062 70.7249C6.89164 70.6317 6.33776 70.6857 5.78388 70.671C5.61723 70.6661 5.55351 70.7445 5.55841 70.9064C5.55841 71.2055 5.55351 71.4998 5.55351 71.7891Z" fill="#2928AE"/>
<path d="M28.3753 71.9215C28.3753 71.0878 28.3753 70.3227 28.3753 69.5626C28.3753 69.1016 28.3802 69.1016 28.8263 69.0967C29.1694 69.0967 29.5125 69.1016 29.8556 69.0967C30.0566 69.0918 30.1644 69.1653 30.1497 69.3811C30.1448 69.4792 30.1497 69.5773 30.1497 69.6754C30.1497 72.1766 30.1497 74.6729 30.1497 77.1741C30.1497 77.2378 30.1497 77.3065 30.1497 77.3702C30.1399 77.7282 30.1399 77.7331 29.8017 77.743C29.4733 77.7479 29.1498 77.7331 28.8214 77.7479C28.5714 77.7577 28.4538 77.6743 28.4832 77.4095C28.493 77.3212 28.5224 77.2182 28.4391 77.1299C28.292 77.1397 28.2332 77.2721 28.1352 77.3506C27.1597 78.1255 25.8706 78.0617 24.9687 77.1986C24.5031 76.7523 24.2335 76.203 24.1109 75.5802C23.9541 74.7857 23.959 73.9863 24.1845 73.2016C24.7776 71.1123 27.0421 70.7837 28.1793 71.8087C28.2087 71.8333 28.2528 71.8529 28.3753 71.9215ZM25.8265 74.5601C25.8118 74.8985 25.851 75.2418 25.9441 75.5703C26.1402 76.2275 26.6892 76.5904 27.3117 76.4678C27.8362 76.3648 28.1156 75.9872 28.2528 75.5115C28.4391 74.8739 28.4195 74.2217 28.243 73.5841C28.0861 73.0103 27.6548 72.6572 27.1352 72.6425C26.601 72.6229 26.1304 72.976 25.9392 73.5498C25.8363 73.8735 25.8118 74.2119 25.8265 74.5601Z" fill="#2928AE"/>
<path d="M22.915 74.5602C22.9101 76.1344 22.0278 77.3801 20.6063 77.7627C19.5917 78.0373 18.631 77.8755 17.7438 77.3115C17.3222 77.0417 17.0036 76.6739 16.7978 76.2129C16.3762 75.2615 16.3076 74.2904 16.6556 73.3047C17.2781 71.5685 18.876 71.0781 20.2681 71.2988C21.8954 71.5636 22.9199 72.8486 22.915 74.5602ZM21.1112 74.5258C21.0916 74.2218 21.0622 73.8785 20.9151 73.5646C20.6749 73.0545 20.2779 72.7407 19.6946 72.7407C19.1162 72.7358 18.6947 73.0251 18.4643 73.5499C18.1751 74.2218 18.1751 74.9182 18.4643 75.5901C18.6898 76.1148 19.1113 76.3944 19.6946 76.3895C20.2828 76.3846 20.6749 76.0805 20.9151 75.5655C21.0622 75.2517 21.1014 74.9084 21.1112 74.5258Z" fill="#2928AE"/>
<path d="M46.5946 71.2545C48.5699 71.2104 50.0992 72.8533 49.81 75.0407C49.4522 77.7184 46.6436 78.5963 44.6241 77.2868C44.232 77.0318 43.9379 76.6836 43.7369 76.2618C43.3546 75.4673 43.2615 74.6287 43.4428 73.7802C43.7811 72.1863 44.9623 71.2594 46.5946 71.2545ZM48.0013 74.5796C48.0111 74.2314 47.9817 73.893 47.8298 73.5792C47.5896 73.0593 47.1975 72.7601 46.6142 72.7405C46.0701 72.7258 45.5701 73.0495 45.3545 73.5841C45.0947 74.2314 45.0947 74.8935 45.3447 75.5409C45.5652 76.1049 46.0554 76.4139 46.6387 76.3942C47.1877 76.3795 47.6484 76.0411 47.8592 75.4919C47.9768 75.1976 48.016 74.8886 48.0013 74.5796Z" fill="#2928AE"/>
<path d="M119.006 75.0897C118.923 75.8057 119.486 76.5266 120.221 76.4923C120.643 76.4727 120.942 76.2912 121.089 75.8989C121.163 75.7076 121.266 75.6537 121.457 75.6831C121.859 75.7419 122.265 75.8008 122.667 75.8449C122.903 75.8694 122.932 75.9773 122.849 76.1735C122.491 77.0318 121.883 77.6007 120.967 77.8017C120.418 77.9243 119.859 77.9194 119.315 77.7919C118.178 77.532 117.526 76.7718 117.251 75.6684C117.05 74.8592 117.08 74.045 117.325 73.2505C117.722 71.9754 118.785 71.23 120.133 71.2545C121.476 71.279 122.452 72.0294 122.824 73.3339C122.961 73.8096 122.996 74.2952 123.006 74.7856C123.01 75.021 122.932 75.0946 122.697 75.0897C121.653 75.0798 120.609 75.0848 119.56 75.0848C119.393 75.0897 119.217 75.0897 119.006 75.0897ZM120.084 73.942C120.359 73.942 120.638 73.947 120.913 73.942C121.236 73.9322 121.27 73.8832 121.192 73.5644C121.05 72.9759 120.589 72.6032 120.045 72.6424C119.516 72.6767 119.074 73.1279 119.001 73.7017C118.981 73.8734 119.035 73.947 119.202 73.942C119.496 73.942 119.79 73.942 120.084 73.942Z" fill="#2928AE"/>
<path d="M100.272 75.0896C100.282 75.9185 100.723 76.4481 101.394 76.4874C101.831 76.5119 102.184 76.3697 102.34 75.9479C102.438 75.688 102.59 75.6536 102.826 75.6929C103.193 75.7566 103.566 75.8057 103.943 75.8449C104.179 75.8694 104.213 75.9724 104.13 76.1735C103.772 77.0317 103.164 77.6006 102.252 77.8066C101.689 77.9341 101.115 77.9243 100.551 77.787C99.5416 77.5418 98.9044 76.8895 98.6005 75.9136C98.326 75.0308 98.3358 74.1382 98.6054 73.2603C98.9975 71.9852 100.061 71.2349 101.414 71.2594C102.757 71.2839 103.732 72.0343 104.11 73.3339C104.242 73.7949 104.296 74.2608 104.286 74.7365C104.281 75.0798 104.281 75.0896 103.938 75.0896C102.894 75.0945 101.85 75.0896 100.801 75.0896C100.635 75.0896 100.473 75.0896 100.272 75.0896ZM101.36 73.942C101.654 73.942 101.943 73.9371 102.237 73.9469C102.458 73.9567 102.522 73.8685 102.487 73.6527C102.389 73.0544 101.919 72.6228 101.36 72.6375C100.806 72.6522 100.341 73.1132 100.272 73.7017C100.252 73.8734 100.316 73.942 100.483 73.9371C100.777 73.942 101.071 73.942 101.36 73.942Z" fill="#2928AE"/>
<path d="M78.6069 75.124C78.6069 75.9087 79.0481 76.4432 79.7196 76.4874C80.1509 76.5168 80.5087 76.3746 80.6705 75.9577C80.7685 75.7027 80.9107 75.6536 81.1508 75.6978C81.5038 75.7615 81.8616 75.7909 82.2194 75.8449C82.5527 75.8988 82.5625 75.9185 82.4449 76.2127C82.0871 77.0759 81.4597 77.6252 80.548 77.8164C80.0137 77.9292 79.4745 77.9243 78.9451 77.8017C77.7835 77.5369 77.1315 76.762 76.862 75.6389C76.6757 74.864 76.7002 74.0793 76.9257 73.3143C77.3031 72.0244 78.3569 71.2496 79.6951 71.2594C81.092 71.2692 82.0871 72.0293 82.4596 73.3731C82.5772 73.7998 82.6262 74.2363 82.6262 74.6826C82.6262 75.0847 82.6262 75.0896 82.2341 75.0945C81.1901 75.0994 80.146 75.0945 79.0971 75.0945C78.9304 75.0896 78.7638 75.0651 78.6069 75.124ZM79.7147 73.942C80.0088 73.942 80.298 73.9371 80.5921 73.9469C80.793 73.9518 80.847 73.8685 80.8224 73.6821C80.7489 73.0887 80.2784 72.6375 79.7196 72.6424C79.1461 72.6424 78.651 73.1328 78.602 73.7311C78.5922 73.8783 78.6461 73.9469 78.7883 73.9469C79.0971 73.942 79.4059 73.942 79.7147 73.942Z" fill="#2928AE"/>
<path d="M107.507 72.0147C107.678 71.9853 107.762 71.8332 107.894 71.745C108.663 71.2055 109.487 71.1123 110.359 71.4458C110.957 71.6714 111.31 72.1128 111.443 72.7356C111.497 72.9907 111.526 73.2506 111.526 73.5154C111.526 74.7905 111.531 76.0657 111.526 77.3408C111.526 77.738 111.516 77.738 111.109 77.7429C110.766 77.7478 110.423 77.7331 110.08 77.7478C109.815 77.7626 109.747 77.6448 109.747 77.3996C109.757 76.3697 109.752 75.3398 109.747 74.3099C109.747 74.0157 109.742 73.7214 109.688 73.432C109.57 72.8092 109.11 72.5149 108.502 72.6866C107.992 72.8288 107.703 73.177 107.624 73.692C107.585 73.9666 107.575 74.2462 107.575 74.5208C107.566 75.4379 107.57 76.3501 107.566 77.2672C107.566 77.7331 107.561 77.738 107.115 77.738C106.771 77.7429 106.428 77.7282 106.085 77.7429C105.845 77.7527 105.762 77.6448 105.772 77.4241C105.776 77.3604 105.772 77.2917 105.772 77.228C105.772 75.4477 105.772 73.6625 105.772 71.8823C105.772 71.4017 105.776 71.4017 106.262 71.3968C106.521 71.3968 106.786 71.3919 107.046 71.3968C107.409 71.4017 107.409 71.4066 107.438 71.7793C107.453 71.8529 107.443 71.9362 107.507 72.0147Z" fill="#2928AE"/>
<path d="M67.0783 72.0834C67.2597 71.9362 67.3675 71.843 67.4852 71.7597C68.2988 71.1761 69.1713 71.1025 70.083 71.4948C70.5977 71.7155 70.9016 72.1275 71.0339 72.667C71.1026 72.9514 71.132 73.2457 71.132 73.5399C71.132 74.8003 71.1369 76.0558 71.132 77.3163C71.132 77.7282 71.1271 77.7331 70.7349 77.738C70.4065 77.7429 70.083 77.7429 69.7546 77.738C69.3674 77.7331 69.3625 77.7282 69.3576 77.3163C69.3527 76.3844 69.3576 75.4526 69.3576 74.5208C69.3576 74.1775 69.3429 73.8342 69.3135 73.4958C69.2596 72.7994 68.6273 72.4267 67.9018 72.7601C67.4558 72.9612 67.2548 73.3487 67.2205 73.8146C67.1911 74.2363 67.1813 74.663 67.1813 75.0897C67.1764 75.8401 67.1813 76.5953 67.1764 77.3457C67.1715 77.7282 67.1666 77.7331 66.799 77.738C66.4558 77.7429 66.1127 77.7429 65.7696 77.738C65.402 77.7331 65.3971 77.7282 65.3922 77.3408C65.3873 76.8847 65.3922 76.4237 65.3922 75.9676C65.3922 74.6091 65.3922 73.2555 65.3922 71.897C65.3922 71.3918 65.3971 71.3918 65.9118 71.3918C66.1715 71.3918 66.4362 71.3869 66.696 71.3918C67.0293 71.4017 67.0293 71.4017 67.0587 71.7548C67.0587 71.8332 67.0636 71.9117 67.0783 72.0834Z" fill="#2928AE"/>
<path d="M126.853 71.2594C127.329 71.2496 127.799 71.3036 128.25 71.4605C128.878 71.6812 129.28 72.1275 129.51 72.7405C129.579 72.9171 129.549 73.0201 129.353 73.0544C128.936 73.1329 128.52 73.2163 128.108 73.3045C127.971 73.334 127.917 73.2653 127.848 73.1476C127.495 72.5444 126.633 72.3286 126.02 72.6719C125.898 72.7406 125.814 72.8337 125.809 72.9809C125.809 73.1329 125.898 73.2261 126.025 73.28C126.368 73.4321 126.736 73.5203 127.098 73.6086C127.638 73.741 128.177 73.8636 128.687 74.099C129.863 74.6434 130.157 75.9921 129.314 76.9877C128.986 77.3751 128.574 77.6203 128.084 77.7429C127.26 77.9489 126.432 77.944 125.618 77.7086C124.858 77.4879 124.304 77.0024 124.001 76.2569C123.873 75.9382 123.898 75.894 124.226 75.845C124.613 75.7861 125.001 75.7469 125.388 75.688C125.579 75.6586 125.682 75.7077 125.75 75.9087C125.907 76.3648 126.26 76.5659 126.726 76.5855C127.054 76.6002 127.378 76.61 127.682 76.4531C127.868 76.3599 127.99 76.2177 127.99 75.9921C127.99 75.7469 127.814 75.6537 127.623 75.5998C127.123 75.4575 126.613 75.3398 126.113 75.1976C125.834 75.1191 125.554 75.0211 125.285 74.9083C124.545 74.6091 124.138 74.0647 124.138 73.2555C124.138 72.4561 124.53 71.8921 125.236 71.5439C125.741 71.2938 126.295 71.2447 126.853 71.2594Z" fill="#2928AE"/>
<path d="M53.6333 71.2595C54.1087 71.2497 54.5793 71.2988 55.0302 71.4508C55.6233 71.647 56.0302 72.0491 56.2703 72.6229C56.4125 72.9613 56.3831 73.0153 56.04 73.0889C55.7998 73.1428 55.5547 73.1673 55.3194 73.2262C54.9763 73.3095 54.6675 73.3978 54.5205 72.9123C54.4518 72.6916 54.1872 72.6082 53.9568 72.569C53.6333 72.515 53.3098 72.5199 52.9863 72.618C52.8049 72.672 52.6334 72.7455 52.6137 72.9564C52.5941 73.1771 52.7657 73.2605 52.9372 73.3292C53.3784 73.5008 53.844 73.5989 54.2999 73.7117C54.7116 73.8147 55.1136 73.9471 55.5057 74.1089C56.8732 74.6778 56.7948 76.2031 56.138 76.9682C55.8194 77.3409 55.4322 77.6008 54.9616 77.7283C54.1087 77.9588 53.246 77.9588 52.403 77.7087C51.6236 77.4782 51.0648 76.978 50.7805 76.1982C50.6825 75.9284 50.6972 75.8941 50.9864 75.85C51.3883 75.7862 51.7952 75.747 52.1971 75.6832C52.3981 75.6489 52.4863 75.7372 52.55 75.9137C52.7118 76.3698 53.0696 76.5611 53.5352 76.5807C53.844 76.5954 54.1577 76.6003 54.4469 76.4679C54.6577 76.3698 54.7901 76.2178 54.7802 75.9775C54.7704 75.7323 54.5989 75.644 54.4028 75.59C54.0107 75.4822 53.6137 75.389 53.2215 75.286C52.8294 75.183 52.4373 75.0653 52.0599 74.9034C51.3491 74.5945 50.9374 74.0697 50.9276 73.285C50.9178 72.4856 51.3001 71.9118 52.001 71.5587C52.5206 71.2988 53.0696 71.2448 53.6333 71.2595Z" fill="#2928AE"/>
<path d="M35.9238 77.0367C35.4042 77.5174 34.8896 77.7969 34.2622 77.8656C32.9436 78.0127 31.9682 77.2427 31.9192 75.9137C31.8702 74.511 31.9045 73.1035 31.8898 71.696C31.8898 71.4556 31.9878 71.3821 32.2133 71.387C32.5907 71.3968 32.9632 71.3968 33.3407 71.387C33.6053 71.3772 33.674 71.4998 33.6691 71.745C33.6593 72.7111 33.6642 73.6724 33.6691 74.6385C33.6691 74.9328 33.6691 75.2271 33.6887 75.5213C33.7328 76.154 33.9975 76.4531 34.5121 76.4875C35.1003 76.5267 35.6052 76.1785 35.7326 75.6439C35.8013 75.3546 35.8209 75.0652 35.8209 74.766C35.8209 73.7852 35.8258 72.8043 35.8307 71.8235C35.8307 71.3968 35.8356 71.3919 36.2718 71.387C36.6002 71.3821 36.9237 71.3821 37.2521 71.387C37.5903 71.3968 37.5952 71.4017 37.605 71.7597C37.61 72.0393 37.605 72.3139 37.605 72.5934C37.605 74.1628 37.605 75.7322 37.605 77.3016C37.605 77.7233 37.6001 77.7233 37.1688 77.7283C36.8894 77.7332 36.6149 77.7332 36.3355 77.7283C35.963 77.7233 35.963 77.7184 35.9434 77.3506C35.9385 77.2771 35.9336 77.1986 35.9238 77.0367Z" fill="#2928AE"/>
<path d="M73.0191 74.6239C73.0191 74.1187 73.0093 73.6087 73.024 73.1035C73.0289 72.873 72.9603 72.7897 72.7201 72.7848C72.2937 72.775 72.2937 72.7553 72.2888 72.3483C72.2888 72.2159 72.2888 72.0884 72.2888 71.9559C72.2888 71.4508 72.2888 71.441 72.7936 71.3919C72.9603 71.3772 73.024 71.3184 73.0191 71.1516C73.0142 70.9407 73.0289 70.725 73.0142 70.5141C73.0044 70.3277 73.0779 70.21 73.2397 70.1217C73.6661 69.8863 74.0876 69.6313 74.519 69.3959C74.7396 69.2733 74.8082 69.3174 74.8131 69.5724C74.8229 70.0629 74.8229 70.5533 74.8131 71.0437C74.8082 71.2791 74.8621 71.3919 75.1317 71.3968C75.9208 71.4116 75.9208 71.4263 75.9208 72.211C75.9208 72.2747 75.9208 72.3434 75.9208 72.4071C75.911 72.775 75.911 72.775 75.5238 72.7897C74.8131 72.8142 74.8131 72.8142 74.8131 73.5253C74.8131 74.2953 74.8082 75.0604 74.8229 75.8303C74.8327 76.36 74.965 76.4532 75.4895 76.3453C75.8914 76.2668 75.8914 76.2668 75.9404 76.6837C75.9699 76.9093 75.9895 77.1398 76.0238 77.3654C76.0581 77.5714 75.965 77.6645 75.7836 77.7185C75.2591 77.8656 74.7298 77.9392 74.1857 77.8264C73.524 77.6891 73.171 77.3065 73.0779 76.6297C72.9897 75.9628 73.0289 75.2909 73.0191 74.6239Z" fill="#2928AE"/>
<path d="M113.413 74.6336C113.413 74.1284 113.408 73.6184 113.418 73.1132C113.423 72.8975 113.374 72.7945 113.124 72.7847C112.688 72.7748 112.688 72.7552 112.688 72.3089C112.688 72.2108 112.683 72.1128 112.688 72.0147C112.698 71.8381 112.629 71.637 112.727 71.485C112.84 71.3134 113.06 71.4065 113.232 71.3918C113.384 71.3771 113.418 71.2937 113.418 71.1662C113.418 70.9553 113.428 70.7396 113.418 70.5287C113.408 70.3423 113.472 70.2246 113.639 70.1314C114.07 69.896 114.487 69.641 114.913 69.4056C115.139 69.283 115.207 69.3173 115.217 69.5674C115.227 70.0431 115.217 70.514 115.222 70.9897C115.227 71.3869 115.227 71.3918 115.629 71.3918C116.442 71.3918 116.325 71.3477 116.325 72.1079C116.325 72.8239 116.433 72.7945 115.643 72.7945C115.227 72.7945 115.222 72.7994 115.222 73.226C115.222 74.1088 115.217 74.9916 115.232 75.8744C115.241 76.3501 115.374 76.4433 115.839 76.3599C115.903 76.3501 115.967 76.3354 116.031 76.3108C116.212 76.2373 116.31 76.2863 116.335 76.4874C116.369 76.7964 116.398 77.1053 116.437 77.4143C116.457 77.5713 116.388 77.6644 116.246 77.7086C115.643 77.8949 115.036 77.9734 114.418 77.787C113.859 77.6154 113.565 77.2231 113.487 76.6492C113.389 75.9725 113.423 75.3006 113.413 74.6336Z" fill="#2928AE"/>
<path d="M41.3254 70.362C41.3254 70.5581 41.3254 70.7543 41.3254 70.9505C41.3303 71.3919 41.3303 71.3919 41.791 71.3919C41.9037 71.3919 42.0214 71.3968 42.1341 71.3919C42.3351 71.3821 42.4429 71.4556 42.4331 71.6714C42.4233 71.9657 42.4282 72.2599 42.4282 72.5542C42.4282 72.7209 42.3498 72.7896 42.188 72.7945C41.9773 72.7945 41.7616 72.7994 41.5508 72.7945C41.3891 72.7945 41.3205 72.8681 41.3205 73.0299C41.3254 74.0108 41.3156 74.9916 41.3352 75.9725C41.3401 76.3354 41.5018 76.4188 41.8988 76.3746C42.0557 76.355 42.2175 76.1932 42.3596 76.3158C42.5017 76.4384 42.4625 76.6493 42.4821 76.8258C42.4968 76.9239 42.4968 77.022 42.5066 77.1201C42.5655 77.6743 42.5655 77.6841 42.0361 77.7969C41.6047 77.8901 41.1636 77.9342 40.7225 77.8361C40.1245 77.7037 39.7274 77.38 39.6147 76.7474C39.5657 76.4874 39.551 76.2275 39.551 75.9676C39.5461 75.0505 39.551 74.1383 39.5461 73.2212C39.5461 72.819 39.5412 72.819 39.1687 72.7945C38.801 72.77 38.801 72.77 38.7912 72.3923C38.7863 72.1962 38.7863 72 38.7912 71.8038C38.801 71.4213 38.801 71.4213 39.1638 71.3968C39.2275 71.3919 39.2961 71.3919 39.3598 71.3919C39.4726 71.3919 39.5412 71.3379 39.5461 71.2153C39.5461 71.1516 39.5608 71.0829 39.5461 71.0191C39.4235 70.4257 39.6784 70.0775 40.2225 69.8617C40.5215 69.744 40.7911 69.5429 41.0754 69.386C41.242 69.2928 41.3205 69.3517 41.3254 69.5331C41.3303 69.8029 41.3254 70.0824 41.3254 70.362Z" fill="#2928AE"/>
<path d="M61.7944 73.3683C61.7944 72.1128 61.7944 70.8524 61.7944 69.5969C61.7944 69.1016 61.7993 69.1016 62.3091 69.1016C62.6522 69.1016 62.9953 69.1114 63.3384 69.0967C63.5639 69.0918 63.6816 69.1653 63.6619 69.4056C63.6521 69.5184 63.6619 69.6361 63.6619 69.7489C63.6619 72.2011 63.6619 74.6483 63.6619 77.1005C63.6619 77.2133 63.657 77.331 63.6619 77.4438C63.6717 77.64 63.6031 77.7528 63.3826 77.7479C62.9414 77.7381 62.5003 77.743 62.0591 77.7479C61.8778 77.7479 61.7846 77.6792 61.7944 77.4928C61.7993 77.38 61.7944 77.2623 61.7944 77.1495C61.7944 75.8793 61.7944 74.6238 61.7944 73.3683Z" fill="#2928AE"/>
<path d="M85.9152 73.4223C85.9152 74.6778 85.9152 75.9333 85.9152 77.1888C85.9152 77.8067 85.9054 77.7331 85.3466 77.738C85.0378 77.738 84.7241 77.7282 84.4153 77.743C84.1996 77.7528 84.1212 77.6547 84.131 77.4536C84.1359 77.3555 84.131 77.2574 84.131 77.1593C84.131 74.6631 84.131 72.1668 84.131 69.6705C84.131 69.6067 84.131 69.538 84.131 69.4743C84.1408 69.1065 84.1408 69.1016 84.5231 69.0967C84.881 69.0918 85.2388 69.1065 85.6015 69.0918C85.8319 69.082 85.925 69.1751 85.9201 69.4056C85.9103 69.8961 85.9201 70.3865 85.9201 70.872C85.9152 71.7254 85.9152 72.5738 85.9152 73.4223Z" fill="#2928AE"/>
<path d="M13.5676 71.8675C13.6853 71.8626 13.7245 71.8087 13.7637 71.7596C14.298 71.1074 15.1312 71.1711 15.7733 71.485C15.9351 71.5635 15.9792 71.6665 15.9155 71.8381C15.7831 72.1912 15.6557 72.5394 15.5381 72.8974C15.4743 73.0936 15.3861 73.1672 15.1851 73.0495C15.0724 72.9857 14.945 72.9416 14.8175 72.922C14.3421 72.8337 14.0333 73.0053 13.847 73.4516C13.7196 73.7557 13.6706 74.0794 13.6657 74.408C13.6509 75.3398 13.6362 76.2667 13.6313 77.1985C13.6313 77.8606 13.5823 77.738 13.0628 77.7429C12.754 77.7478 12.4452 77.738 12.1315 77.7478C11.9207 77.7527 11.8374 77.6644 11.8374 77.4584C11.8423 77.1495 11.8374 76.8405 11.8374 76.5266C11.8374 74.9916 11.8374 73.4614 11.8374 71.9264C11.8374 71.4016 11.8423 71.4016 12.3863 71.3967C12.5824 71.3967 12.7785 71.3967 12.9745 71.3967C13.4549 71.3918 13.4549 71.3918 13.5676 71.8675Z" fill="#2928AE"/>
<path d="M89.4786 74.5943C89.4786 75.4624 89.4786 76.3256 89.4786 77.1936C89.4786 77.8017 89.5032 77.7331 88.9101 77.738C88.714 77.738 88.5179 77.738 88.3219 77.738C87.6602 77.7331 87.7043 77.8067 87.7043 77.1446C87.7043 76.1294 87.7043 75.1191 87.7043 74.1039C87.7043 73.3683 87.7043 72.6326 87.7043 71.897C87.7043 71.3967 87.7092 71.3967 88.2238 71.3967C88.4836 71.3967 88.7483 71.3967 89.0081 71.3967C89.4688 71.4016 89.4737 71.4016 89.4737 71.8528C89.4786 72.765 89.4786 73.6772 89.4786 74.5943Z" fill="#2928AE"/>
<path d="M89.2434 69.0967C89.41 69.0918 89.4737 69.1751 89.4737 69.337C89.4737 69.744 89.4737 70.156 89.4737 70.5631C89.4737 70.7004 89.4002 70.769 89.263 70.769C88.8218 70.769 88.3807 70.769 87.9395 70.769C87.7778 70.769 87.7043 70.6906 87.7043 70.5287C87.7043 70.1364 87.7092 69.744 87.7043 69.3517C87.7043 69.1653 87.7876 69.0918 87.969 69.0967" fill="#2928AE"/>
<path d="M64.7256 61.7401C62.9512 61.7794 60.7112 61.7352 58.476 61.6224C55.9811 61.4949 53.4911 61.284 51.0109 60.9849C44.3643 60.1904 37.8501 58.773 31.4731 56.7426C27.3901 55.443 23.4247 53.854 19.6848 51.7353C16.5184 49.9355 13.5627 47.8413 10.9894 45.2469C8.98462 43.2264 7.41121 40.9263 6.47991 38.2093C5.828 36.3113 5.55351 34.3692 5.73977 32.3731C5.92113 30.3918 6.56814 28.5527 7.53865 26.8215C8.73954 24.6734 10.313 22.8245 12.0922 21.1472C14.7979 18.5871 17.9055 16.6107 21.2239 14.9481C26.2039 12.4518 31.4143 10.5686 36.8012 9.16596C40.644 8.16549 44.5359 7.42003 48.4719 6.89037C51.0305 6.54706 53.5941 6.29695 56.1674 6.10077C60.4416 5.77218 64.7158 5.66429 68.9998 5.74766C71.7104 5.80161 74.416 5.95855 77.1217 6.19395C80.6705 6.50783 84.1947 6.96883 87.6994 7.59659C94.9782 8.89623 102.032 10.9217 108.708 14.1487C111.756 15.62 114.707 17.263 117.393 19.3473C119.604 21.0638 121.545 23.0304 123.128 25.3502C124.545 27.4247 125.451 29.6954 125.721 32.1966C126.089 35.61 125.275 38.7487 123.452 41.6325C122.246 43.5403 120.692 45.1538 119.03 46.6643C115.908 49.5039 112.335 51.6569 108.512 53.4077C103.301 55.7912 97.88 57.5715 92.3069 58.8956C89.1894 59.6313 86.0475 60.2051 82.8762 60.6367C80.5136 60.9554 78.1412 61.1958 75.764 61.3674C72.2446 61.6273 68.7204 61.7352 64.7256 61.7401ZM87.5327 55.3008C87.5425 55.2714 87.5474 55.2419 87.5572 55.2076C87.1896 54.9428 86.8269 54.6681 86.4494 54.4082C85.474 53.7412 84.8564 52.8388 84.5623 51.6961C84.1849 50.2395 83.7928 48.7928 83.4105 47.3411C83.2242 46.63 83.3124 45.9483 83.6506 45.296C84.4692 43.7168 86.4151 43.6187 87.3906 45.1096C87.6258 45.4676 87.7582 45.8698 87.8807 46.2818C88.1993 47.3803 88.4983 48.4838 88.8414 49.5725C89.1796 50.6417 89.8708 51.0193 90.9589 50.7643C91.9785 50.524 92.9637 50.1807 93.9489 49.8374C94.1008 49.7834 94.2479 49.7099 94.39 49.6265C94.8655 49.3519 95.0322 49.0282 94.9439 48.4838C94.9047 48.2288 94.8312 47.9737 94.743 47.7285C93.2186 43.5746 91.6893 39.4206 90.1649 35.2716C89.8168 34.3251 89.1404 33.8346 88.1405 33.766C86.871 33.6777 85.6015 33.5747 84.3271 33.4815C81.4939 33.2755 79.499 31.255 78.9451 29.0529C78.1363 25.821 77.357 22.5841 76.6561 19.3277C76.2296 17.3414 77.0776 15.4729 78.7785 14.595C79.4598 14.2419 80.1901 14.0997 80.9499 14.085C82.0135 14.0654 83.0674 14.1684 84.1261 14.2566C86.7141 14.4675 88.8561 16.9393 88.9395 19.4503C88.9787 20.6568 88.3317 21.5248 87.1847 21.7749C85.9985 22.03 85.1407 21.5395 84.8074 20.5832C84.7437 20.4017 84.6506 20.2252 84.5574 20.0535C84.3418 19.6759 84.0477 19.3718 83.6555 19.1806C82.935 18.8274 82.1606 18.7833 81.3616 18.7882C81.3861 18.9304 81.4008 19.0285 81.4204 19.1217C82.0184 21.8828 82.6066 24.644 83.2144 27.4051C83.4399 28.4301 84.1457 28.999 85.2388 29.0824C86.6406 29.1902 88.0425 29.2981 89.4492 29.2981C89.8267 29.2981 90.1992 29.3423 90.5668 29.4257C91.6746 29.6807 92.5029 30.3428 93.1744 31.2255C93.8215 32.0789 94.2773 33.0401 94.6596 34.0308C95.8115 36.9832 96.9585 39.9356 98.1055 42.888C98.5809 44.1042 99.1348 45.2911 99.5171 46.5417C99.9583 47.9885 100.12 49.4499 99.7524 50.9408C99.6396 51.4068 99.4583 51.8531 99.2671 52.3974C102.272 51.1566 105.188 49.9502 108.134 48.7339C107.83 48.1013 107.57 47.5176 107.276 46.9537C104.36 41.3431 101.439 35.7424 98.5172 30.1319C96.7967 26.8313 95.0763 23.5258 93.3558 20.2252C93.1744 19.877 93.0127 19.519 92.9392 19.1315C92.7725 18.234 93.0176 17.4788 93.743 16.9099C94.4783 16.3312 95.2625 16.3017 96.086 16.7039C96.6007 16.954 96.9977 17.3365 97.2967 17.8172C97.5124 18.1605 97.7133 18.5185 97.9045 18.8814C102.615 27.7925 107.32 36.7036 112.031 45.6148C112.09 45.7325 112.153 45.8453 112.217 45.9581C112.271 46.0611 112.345 46.1003 112.452 46.0267C112.536 45.9728 112.614 45.9188 112.698 45.8649C114.658 44.6143 116.3 43.0008 117.81 41.2499C118.57 40.3721 119.192 39.3863 119.687 38.3319C121.128 35.2569 121.138 32.1819 119.692 29.1069C118.967 27.5669 117.937 26.2428 116.766 25.0216C114.359 22.5204 111.546 20.5783 108.472 19.004C104.566 17.003 100.458 15.5121 96.2526 14.2763C90.7236 12.6529 85.0721 11.6475 79.347 11.0541C76.4208 10.7501 73.4847 10.5637 70.5487 10.4705C65.6961 10.3185 60.8435 10.3577 56.0007 10.7206C53.2951 10.9217 50.6041 11.2111 47.918 11.5985C44.0359 12.1625 40.2029 12.9472 36.4238 13.9918C32.5662 15.056 28.7724 16.3213 25.1305 17.9986C21.6847 19.5876 18.4839 21.5641 15.6802 24.1437C14.2882 25.4237 13.0726 26.8509 12.1756 28.5233C11.4011 29.9651 10.9208 31.4953 10.8325 33.1431C10.7002 35.5658 11.3913 37.7581 12.6706 39.7885C13.9744 41.8532 15.7096 43.4961 17.6948 44.8889C17.7438 44.9233 17.8026 44.9478 17.881 44.987C18.3026 44.3298 18.6898 43.6727 19.0427 42.991C22.6454 36.0269 26.2431 29.0627 29.8409 22.0986C30.4095 20.9952 30.9732 19.8868 31.5467 18.7882C32.2525 17.4444 33.3211 16.5519 34.8258 16.2184C35.8748 15.983 36.9188 15.7181 37.9727 15.4974C38.6246 15.3601 39.2814 15.1786 39.9529 15.2032C42.487 15.2914 44.4232 17.876 43.6438 20.3576C42.639 23.5503 41.644 26.7479 40.6097 29.9259C39.9578 31.9219 38.6001 33.1627 36.5904 33.7169C35.8944 33.9082 35.1837 33.9965 34.4729 34.1093C34.1004 34.1681 34.1053 34.1681 34.1445 34.5359C34.2082 35.0852 34.3161 35.6345 34.2573 36.1936C34.1445 37.2676 34.0416 38.3417 33.9289 39.4108C33.7475 41.1175 33.5661 42.8242 33.3799 44.526C33.1985 46.1984 33.0074 47.8708 32.826 49.5431C32.7623 50.1464 32.6936 50.7447 32.6593 51.3479C32.6103 52.1277 32.7819 52.3729 33.5024 52.6328C33.7181 52.7113 33.9387 52.7702 34.1543 52.8388C36.6492 53.6235 39.2079 54.1483 41.7469 54.7613C41.8694 54.7907 41.9969 54.8447 42.1243 54.776C42.1243 54.7417 42.1292 54.7025 42.1145 54.6779C42.041 54.5504 41.9675 54.4229 41.889 54.3003C41.2077 53.1674 40.8646 51.9462 40.8989 50.6123C40.9185 49.8031 41.0558 49.0184 41.2518 48.2435C43.8889 37.7483 46.526 27.2481 49.163 16.7529C49.2905 16.2429 49.4375 15.7426 49.6826 15.2767C50.2512 14.1929 51.1384 13.5798 52.3588 13.4768C53.5646 13.369 54.7704 13.2905 55.9713 13.163C56.5742 13.0992 57.1428 13.163 57.7065 13.3542C59.3828 13.9231 60.7259 15.6593 60.4514 17.567C60.4024 17.9202 60.3779 18.2831 60.3386 18.6411C60.1622 20.2301 59.9857 21.824 59.8044 23.413C59.5887 25.3109 59.3681 27.2089 59.1574 29.1118C58.976 30.7204 58.8093 32.329 58.6329 33.9376C58.4466 35.6443 58.2653 37.3461 58.0741 39.0528C57.8977 40.6614 57.7114 42.2651 57.5349 43.8737C57.3536 45.4971 57.1722 47.1204 56.9909 48.7437C56.8732 49.7834 56.8095 50.8281 56.6134 51.858C56.2605 53.6873 55.4665 55.2517 53.9764 56.419C53.9078 56.4729 53.7852 56.5023 53.844 56.6544C57.432 56.8211 61.0298 56.9928 64.6521 57.1644C64.6324 56.9094 64.5148 56.7672 64.4315 56.6151C64.0982 56.0168 63.7502 55.4234 63.4218 54.8202C63.1228 54.2709 62.8875 53.6971 62.7894 53.0791C62.662 52.2895 62.5983 51.4901 62.5885 50.6858C62.5787 49.6216 62.6326 48.5623 62.6718 47.498C62.7208 46.1935 63.3678 45.5069 64.657 45.4186C65.9608 45.3254 66.9803 46.1788 67.1176 47.4784C67.1519 47.7874 67.1568 48.0964 67.1617 48.4102C67.1764 49.3077 67.1911 50.2101 67.196 51.1076C67.2009 51.4509 67.2352 51.7942 67.294 52.1326C67.3969 52.7113 67.642 52.9516 68.2155 53.0546C68.4753 53.0987 68.7351 53.1233 68.9949 53.1184C70.0095 53.0938 71.0192 53.0693 72.0339 53.0448C72.2642 53.0399 72.4897 53.0007 72.7103 52.9418C73.1514 52.829 73.4161 52.5544 73.4798 52.0983C73.519 51.8236 73.5337 51.549 73.5043 51.2694C73.3867 50.1316 73.2789 48.9938 73.1661 47.856C72.9946 46.1837 72.8181 44.5064 72.6417 42.834C72.4554 41.0489 72.2789 39.2588 72.0878 37.4687C71.9652 36.3309 71.9015 35.1882 71.7153 34.0602C71.5388 32.9911 71.1908 32.6674 70.1173 32.5448C70.0536 32.535 69.985 32.5399 69.9213 32.5252C69.1419 32.3977 68.3577 32.432 67.5734 32.3682C65.0932 32.177 62.7698 29.7886 62.8434 27.1697C62.8924 25.5513 62.8483 23.9328 62.8924 22.3144C62.9414 20.5194 62.9169 18.7147 63.0541 16.9246C63.1522 15.6691 63.6962 14.6441 64.6962 13.8692C65.2599 13.4327 65.8873 13.1286 66.5637 12.9129C68.0293 12.4469 69.485 12.5696 70.9604 12.903C73.22 13.4131 74.4454 15.6544 74.2249 17.6749C74.1121 18.6999 73.4651 19.3473 72.3819 19.5533C71.4064 19.7396 70.5634 19.3277 70.0928 18.4351C70.034 18.3174 69.9801 18.1997 69.9164 18.0869C69.5046 17.3414 68.9459 17.1109 68.1077 17.2924C67.8577 17.3463 67.7646 17.4444 67.7499 17.7044C67.642 19.7789 67.5048 21.8485 67.3969 23.923C67.3528 24.7862 67.3234 25.6542 67.3675 26.5223C67.4117 27.4198 67.7499 27.7778 68.642 27.9102C68.74 27.9249 68.838 27.9249 68.9361 27.9347C69.5242 27.9887 70.1075 28.0034 70.6957 28.023C73.3475 28.1064 75.3866 29.7739 76.009 32.3535C76.1904 33.1039 76.2345 33.869 76.3277 34.634C76.5482 36.4486 76.759 38.2681 76.9796 40.0827C77.1854 41.7845 77.3962 43.4863 77.607 45.1881C77.8423 47.1155 78.1609 49.038 78.3128 50.9752C78.4795 53.1184 77.9501 55.0261 76.362 56.5612C76.3081 56.6151 76.2247 56.6593 76.2639 56.8064C80.0382 56.2915 83.783 55.7961 87.5327 55.3008ZM50.4472 52.1277C51.3001 52.1375 51.7707 51.7844 51.9128 51.0389C52.0452 50.3523 52.1187 49.651 52.2069 48.9546C52.4177 47.2675 52.6284 45.5853 52.8343 43.8983C53.0843 41.8875 53.3294 39.8767 53.5744 37.866C53.8195 35.8552 54.0548 33.8444 54.2999 31.8337C54.545 29.8082 54.7998 27.7827 55.0449 25.7523C55.2655 23.9034 55.4861 22.0545 55.7017 20.2056C55.79 19.4601 55.8733 18.7146 55.9468 17.9643C55.9811 17.621 55.9664 17.6112 55.6086 17.621C55.1822 17.6357 54.7606 17.6553 54.3391 17.6995C53.8195 17.7534 53.4617 18.0231 53.2951 18.5283C53.2264 18.7441 53.1529 18.9648 53.0941 19.1855C52.55 21.4071 52.0059 23.6239 51.4668 25.8455C49.56 33.7463 47.6582 41.6521 45.7564 49.5529C45.6731 49.9011 45.5996 50.2542 45.6339 50.6172C45.6682 51.0095 45.8593 51.2891 46.2221 51.4509C46.4328 51.5441 46.6583 51.5882 46.8838 51.6225C47.2367 51.6765 47.5945 51.7353 47.9474 51.7844C48.815 51.9168 49.6875 52.0296 50.4472 52.1277ZM27.5617 50.4504C27.8656 48.219 28.1695 45.9875 28.4783 43.756C28.7283 41.9464 28.9782 40.1318 29.2233 38.3221C29.4733 36.4928 29.7184 34.6635 29.9586 32.8342C29.9733 32.7066 30.1056 32.5056 29.9193 32.4467C29.7429 32.3879 29.7184 32.6233 29.6596 32.7361C27.0617 37.6257 24.4688 42.5153 21.8807 47.4097C21.6945 47.758 21.6945 47.7629 22.0474 47.9296C23.758 48.7437 25.4687 49.5529 27.1793 50.3621C27.2774 50.4063 27.3705 50.4897 27.5617 50.4504ZM31.3163 29.2638C32.3211 29.3472 33.3358 29.4551 34.3553 29.5041C34.9729 29.5335 35.4925 29.2442 35.8748 28.744C36.0758 28.484 36.2228 28.1947 36.3404 27.8857C36.5512 27.3364 36.7669 26.792 36.9825 26.2477C37.7521 24.3252 38.6246 22.4419 39.3353 20.4949C39.3794 20.3723 39.4382 20.2546 39.4627 20.1271C39.5069 19.8966 39.2716 19.6465 39.0657 19.7249C38.2374 20.0241 37.3649 20.1958 36.561 20.5538C36.1199 20.7499 35.7571 21.0344 35.4925 21.4513C35.1003 22.0545 34.718 22.6577 34.3602 23.2806C33.2867 25.1491 32.3701 27.101 31.3653 29.0039C31.3212 29.0676 31.2771 29.1412 31.3163 29.2638Z" fill="#FEFEFE"/>
<path d="M87.5327 55.3007C83.783 55.7961 80.0382 56.2914 76.2934 56.7868C76.2541 56.6347 76.3375 56.5906 76.3914 56.5415C77.9795 55.0065 78.5089 53.0987 78.3422 50.9555C78.1903 49.0183 77.8717 47.0958 77.6364 45.1684C77.4305 43.4667 77.2149 41.7649 77.009 40.0631C76.7884 38.2485 76.5777 36.429 76.3571 34.6144C76.2639 33.8542 76.2198 33.0842 76.0385 32.3339C75.416 29.7542 73.372 28.0868 70.7251 28.0034C70.137 27.9838 69.5488 27.974 68.9655 27.9151C68.8674 27.9053 68.7694 27.9053 68.6714 27.8906C67.7793 27.7631 67.446 27.4051 67.397 26.5027C67.3528 25.6346 67.3823 24.7714 67.4264 23.9034C67.5342 21.8289 67.6665 19.7592 67.7793 17.6847C67.794 17.4248 67.8871 17.3267 68.1371 17.2728C68.9753 17.0913 69.5341 17.3218 69.9458 18.0673C70.0095 18.1801 70.0634 18.3027 70.1222 18.4155C70.5928 19.3031 71.4359 19.7151 72.4113 19.5336C73.4945 19.3277 74.1416 18.6803 74.2543 17.6553C74.4749 15.6347 73.2446 13.3935 70.9898 12.8834C69.5145 12.5499 68.0538 12.4273 66.5931 12.8932C65.9167 13.109 65.2893 13.4131 64.7256 13.8496C63.7257 14.6244 63.1767 15.6494 63.0836 16.9049C62.9463 18.6999 62.9708 20.4998 62.9218 22.2948C62.8777 23.9132 62.9169 25.5316 62.8728 27.15C62.7944 29.7689 65.1177 32.1524 67.6028 32.3486C68.3822 32.4074 69.1713 32.378 69.9507 32.5055C70.0144 32.5153 70.083 32.5153 70.1468 32.5252C71.2153 32.6527 71.5633 32.9714 71.7447 34.0406C71.9309 35.1686 71.9996 36.3113 72.1172 37.4491C72.3084 39.2342 72.4848 41.0243 72.6711 42.8144C72.8426 44.4868 73.024 46.164 73.1955 47.8364C73.3132 48.9742 73.421 50.112 73.5338 51.2498C73.5632 51.5293 73.5485 51.804 73.5092 52.0786C73.4455 52.5396 73.1808 52.8094 72.7397 52.9222C72.5191 52.981 72.2936 53.0202 72.0633 53.0251C71.0486 53.0497 70.0389 53.0742 69.0243 53.0987C68.7645 53.1036 68.5047 53.084 68.2449 53.035C67.6714 52.932 67.4215 52.6966 67.3234 52.1129C67.2646 51.7745 67.2254 51.4361 67.2254 51.0879C67.2205 50.1905 67.2058 49.2881 67.1911 48.3906C67.1862 48.0816 67.1764 47.7677 67.147 47.4588C67.0097 46.1591 65.9902 45.3058 64.6864 45.399C63.3973 45.4872 62.7502 46.1787 62.7012 47.4784C62.662 48.5426 62.6032 49.6019 62.6179 50.6662C62.6277 51.4705 62.6914 52.265 62.8189 53.0595C62.9169 53.6774 63.1522 54.2561 63.4512 54.8005C63.7796 55.4037 64.1276 55.9923 64.4609 56.5955C64.5442 56.7475 64.6619 56.8897 64.6815 57.1448C61.0592 56.9731 57.4614 56.8064 53.8735 56.6347C53.8146 56.4827 53.9372 56.4533 54.0058 56.3993C55.491 55.2272 56.2899 53.6627 56.6429 51.8383C56.8389 50.8084 56.9026 49.7638 57.0203 48.7241C57.2016 47.1007 57.383 45.4774 57.5644 43.8541C57.7457 42.2455 57.9271 40.6418 58.1035 39.0332C58.2898 37.3265 58.4761 35.6247 58.6623 33.918C58.8388 32.3094 59.0054 30.7007 59.1868 29.0921C59.3976 27.1942 59.6181 25.2962 59.8338 23.3933C60.0151 21.8043 60.1916 20.2104 60.3681 18.6214C60.4073 18.2634 60.4269 17.9054 60.4808 17.5474C60.7553 15.6396 59.4123 13.9035 57.7359 13.3346C57.1722 13.1433 56.5987 13.0796 56.0007 13.1433C54.7999 13.2708 53.5941 13.3542 52.3883 13.4572C51.1678 13.5651 50.2806 14.1732 49.712 15.2571C49.4669 15.723 49.3199 16.2232 49.1924 16.7333C46.5554 27.2285 43.9134 37.7286 41.2812 48.2238C41.0852 48.9987 40.9479 49.7883 40.9283 50.5926C40.8989 51.9217 41.2371 53.1429 41.9185 54.2807C41.992 54.4082 42.0704 54.5308 42.1439 54.6583C42.1586 54.6828 42.1488 54.722 42.1537 54.7564C42.0263 54.825 41.8989 54.7711 41.7763 54.7417C39.2373 54.1286 36.6786 53.599 34.1837 52.8192C33.9681 52.7505 33.7426 52.6917 33.5318 52.6132C32.8113 52.3533 32.6397 52.108 32.6888 51.3283C32.728 50.725 32.7917 50.1218 32.8554 49.5235C33.0368 47.8511 33.2279 46.1787 33.4093 44.5064C33.5955 42.7997 33.7769 41.093 33.9583 39.3912C34.071 38.3171 34.1739 37.2431 34.2867 36.174C34.3455 35.6149 34.2328 35.0656 34.1739 34.5163C34.1347 34.1485 34.1298 34.1485 34.5023 34.0896C35.2131 33.9817 35.9238 33.8885 36.6198 33.6973C38.6295 33.1431 39.9921 31.9023 40.6391 29.9062C41.6783 26.7234 42.6684 23.5307 43.6732 20.3379C44.4526 17.8613 42.5165 15.2767 39.9823 15.1835C39.3108 15.159 38.654 15.3405 38.0021 15.4778C36.9482 15.7034 35.9042 15.9682 34.8553 16.1987C33.3505 16.5322 32.2819 17.4248 31.5761 18.7686C30.9977 19.8671 30.4389 20.9755 29.8703 22.079C26.2726 29.0431 22.6699 36.0072 19.0721 42.9713C18.7192 43.653 18.3271 44.3102 17.9104 44.9674C17.832 44.9281 17.7732 44.9036 17.7242 44.8693C15.7341 43.4814 13.999 41.8384 12.7 39.7688C11.4207 37.7384 10.7345 35.5462 10.8619 33.1235C10.9502 31.4805 11.4305 29.9504 12.205 28.5036C13.1069 26.8263 14.3176 25.4041 15.7096 24.1241C18.5133 21.5444 21.7141 19.568 25.1599 17.979C28.8018 16.2968 32.5907 15.0364 36.4532 13.9722C40.2323 12.9324 44.0703 12.1429 47.9474 11.5789C50.6335 11.1914 53.3245 10.9021 56.0302 10.701C60.8778 10.3381 65.7255 10.2988 70.5781 10.4509C73.5191 10.544 76.4502 10.7304 79.3765 11.0345C85.1015 11.6279 90.7531 12.6333 96.2821 14.2566C100.488 15.4876 104.595 16.9834 108.502 18.9844C111.575 20.5586 114.389 22.5057 116.795 25.0019C117.972 26.2231 119.001 27.5473 119.721 29.0872C121.167 32.1622 121.158 35.2372 119.717 38.3122C119.222 39.3667 118.599 40.3524 117.839 41.2303C116.325 42.9762 114.688 44.5897 112.727 45.8452C112.644 45.8992 112.565 45.9531 112.482 46.0071C112.374 46.0807 112.3 46.0414 112.247 45.9384C112.183 45.8256 112.119 45.7079 112.06 45.5951C107.355 36.684 102.644 27.7729 97.9339 18.8618C97.7427 18.4988 97.5418 18.1457 97.3261 17.7975C97.0271 17.3169 96.6252 16.9344 96.1154 16.6842C95.2919 16.2821 94.5077 16.3115 93.7724 16.8902C93.047 17.464 92.8019 18.2193 92.9686 19.1119C93.0421 19.4993 93.199 19.8573 93.3852 20.2055C95.1057 23.5061 96.8261 26.8116 98.5466 30.1122C101.468 35.7179 104.389 41.3235 107.306 46.934C107.6 47.498 107.86 48.0767 108.164 48.7143C105.218 49.9305 102.301 51.137 99.2965 52.3778C99.4877 51.8334 99.6691 51.3871 99.7818 50.9212C100.145 49.4303 99.9828 47.9688 99.5465 46.522C99.1642 45.2714 98.6103 44.0846 98.1349 42.8683C96.983 39.9159 95.836 36.9635 94.689 34.0112C94.3018 33.0205 93.8509 32.0592 93.2039 31.2059C92.5323 30.3231 91.704 29.661 90.5962 29.406C90.2286 29.3226 89.8561 29.2785 89.4786 29.2785C88.0719 29.2785 86.67 29.1706 85.2682 29.0627C84.1751 28.9793 83.4693 28.4104 83.2438 27.3854C82.636 24.6292 82.0478 21.8632 81.4498 19.1021C81.4302 19.0089 81.4155 18.9108 81.391 18.7686C82.1949 18.7637 82.9644 18.8078 83.685 19.1609C84.0771 19.3522 84.3712 19.6562 84.5869 20.0339C84.6849 20.2055 84.7731 20.3821 84.8368 20.5635C85.1702 21.5248 86.0279 22.0152 87.2141 21.7553C88.3611 21.5052 89.0032 20.6371 88.9689 19.4307C88.8905 16.9196 86.7485 14.4479 84.1555 14.237C83.0968 14.1487 82.0429 14.0457 80.9793 14.0653C80.2195 14.0801 79.4892 14.2223 78.8079 14.5754C77.107 15.4533 76.259 17.3218 76.6855 19.308C77.3864 22.5645 78.1658 25.8013 78.9745 29.0333C79.5235 31.2353 81.5185 33.251 84.3565 33.4619C85.626 33.5551 86.8955 33.658 88.1699 33.7463C89.1699 33.815 89.8463 34.3054 90.1943 35.2519C91.7187 39.4059 93.248 43.5549 94.7724 47.7089C94.8606 47.9541 94.9341 48.2091 94.9733 48.4641C95.0616 49.0085 94.8949 49.3322 94.4195 49.6068C94.2773 49.6902 94.1303 49.7638 93.9783 49.8177C92.9931 50.161 92.003 50.5043 90.9883 50.7446C89.9051 50.9997 89.2091 50.622 88.8708 49.5529C88.5277 48.4641 88.2287 47.3607 87.9101 46.2621C87.7925 45.8551 87.6602 45.4529 87.42 45.09C86.4446 43.5991 84.4986 43.6923 83.6801 45.2763C83.3419 45.9237 83.2536 46.6103 83.4399 47.3214C83.8222 48.7731 84.2192 50.2248 84.5918 51.6765C84.8859 52.8192 85.5035 53.7216 86.4789 54.3885C86.8563 54.6436 87.219 54.9182 87.5866 55.188C87.5474 55.2419 87.5376 55.2713 87.5327 55.3007Z" fill="#2928AE"/>
<path d="M50.4472 52.1277C49.6875 52.0296 48.815 51.9119 47.9425 51.7942C47.5847 51.7452 47.2318 51.6863 46.8789 51.6324C46.6534 51.598 46.4279 51.5539 46.2172 51.4607C45.8544 51.2989 45.6633 51.0193 45.629 50.627C45.5996 50.2641 45.6682 49.911 45.7515 49.5627C47.6533 41.6619 49.5551 33.7562 51.4619 25.8553C51.9961 23.6337 52.5451 21.4169 53.0892 19.1953C53.1431 18.9746 53.2166 18.7588 53.2902 18.5381C53.4568 18.033 53.8146 17.7583 54.3342 17.7093C54.7557 17.6651 55.1822 17.6455 55.6037 17.6308C55.9615 17.621 55.9762 17.6308 55.9419 17.9741C55.8684 18.7196 55.7851 19.4699 55.6968 20.2154C55.4812 22.0643 55.2655 23.9132 55.04 25.7621C54.795 27.7876 54.545 29.8131 54.295 31.8435C54.0499 33.8543 53.8146 35.865 53.5696 37.8758C53.3245 39.8866 53.0745 41.8973 52.8294 43.9081C52.6235 45.5952 52.4128 47.2773 52.202 48.9644C52.1138 49.6608 52.0403 50.3622 51.9079 51.0488C51.7707 51.7844 51.3001 52.1375 50.4472 52.1277Z" fill="#2928AE"/>
<path d="M27.5617 50.4504C27.3705 50.4896 27.2774 50.4063 27.1745 50.3621C25.4638 49.5529 23.7531 48.7437 22.0425 47.9296C21.6896 47.7629 21.6896 47.758 21.8758 47.4097C24.4688 42.5153 27.0617 37.6257 29.6547 32.7361C29.7184 32.6184 29.738 32.3879 29.9144 32.4467C30.0958 32.5056 29.9684 32.7066 29.9537 32.8341C29.7135 34.6635 29.4684 36.4928 29.2184 38.3221C28.9733 40.1367 28.7234 41.9464 28.4734 43.756C28.1744 45.9875 27.8656 48.219 27.5617 50.4504Z" fill="#2928AE"/>
<path d="M31.3163 29.2639C31.2771 29.1462 31.3212 29.0726 31.3555 28.999C32.3652 27.0962 33.2818 25.1442 34.3504 23.2757C34.7082 22.6529 35.0954 22.0496 35.4827 21.4464C35.7522 21.0295 36.1101 20.7451 36.5512 20.5489C37.36 20.1909 38.2324 20.0192 39.0559 19.7201C39.2618 19.6465 39.4971 19.8917 39.4529 20.1222C39.4284 20.2497 39.3696 20.3675 39.3255 20.4901C38.6148 22.4371 37.7472 24.3203 36.9727 26.2428C36.7522 26.7872 36.5414 27.3365 36.3306 27.8808C36.213 28.1898 36.0659 28.4743 35.865 28.7391C35.4827 29.2393 34.968 29.5287 34.3455 29.4993C33.3358 29.4551 32.3211 29.3423 31.3163 29.2639Z" fill="#2928AE"/>
</svg>
