<svg width="216" height="46" viewBox="0 0 216 46" fill="none" xmlns="http://www.w3.org/2000/svg">
<g clip-path="url(#clip0_21_364)">
<path fill-rule="evenodd" clip-rule="evenodd" d="M110.286 12.7464C104.236 12.882 99.5285 14.214 94.0749 17.7258C94.5164 16.1072 94.9588 14.5023 95.402 12.7464H81.0942L77.1198 28.9992C75.7789 34.5681 74.4535 39.986 73.1281 45.5549H87.2813L91.1209 30.0282C93.039 21.9782 96.4224 17.876 103.063 17.7249C108.959 17.7249 111.168 21.2358 109.248 28.8473L105.12 45.5549H119.427L124.301 25.6247C125.321 21.2359 123.996 18.3154 121.789 16.1063C119.578 13.9119 115.739 12.7464 110.286 12.7464ZM211.241 9.49555C208.629 9.49555 206.482 11.6282 206.482 14.2226C206.482 16.8324 208.629 18.9496 211.241 18.9496C213.869 18.9496 216 16.8332 216 14.2226C216 11.6282 213.869 9.49555 211.241 9.49555ZM211.241 18.4398C208.901 18.4398 206.995 16.5457 206.995 14.2217C206.995 11.8977 208.902 10.0036 211.241 10.0036C213.581 10.0036 215.488 11.8977 215.488 14.2217C215.488 16.5457 213.581 18.4398 211.241 18.4398ZM213.468 13.1721C213.468 12.5516 213.292 12.0582 212.908 11.7398C212.523 11.4059 211.978 11.2463 211.258 11.2463H209.527V17.2143H210.393V14.4448L212.395 17.2143H213.469L211.787 14.9066C212.268 14.8903 212.685 14.7152 213.005 14.3976C213.324 14.0638 213.468 13.6493 213.468 13.1721ZM212.186 14.0475C211.882 14.2389 211.449 14.3341 210.84 14.3341H210.392V12.0582H211.048C211.594 12.0582 211.994 12.1217 212.25 12.3131C212.49 12.4881 212.635 12.7748 212.635 13.1567C212.635 13.5703 212.475 13.8561 212.186 14.0475ZM198.31 13.4742C194.176 12.5988 189.466 12.5988 185.187 13.4742C183.12 13.9196 181.358 14.5083 179.723 15.225C176.054 16.8487 175.589 18.5994 174.276 21.0822C175.461 20.7956 178.266 19.3315 181.502 18.4561C182.688 18.1695 183.857 17.8828 185.187 17.7241C190.203 16.8487 195.362 17.4374 193.888 23.2947C190.94 23.2947 187.975 23.2947 185.187 23.5813C183.713 23.7401 182.383 23.868 181.069 24.0267C172.657 25.6187 167.642 31.0615 167.209 36.0434V37.3487C167.642 41.9007 171.92 45.6888 181.358 45.6888L185.187 45.5618H189.016L199.191 45.403L205.148 22.0331C205.483 20.7183 205.558 19.3229 205.162 18.0244C204.362 15.3906 202.251 14.1625 198.31 13.4742ZM189.77 40.8657L185.476 41.009H185.187C174.276 40.8657 174.708 30.314 183.569 27.9736C184.162 27.8303 184.594 27.687 185.187 27.5282C187.847 27.0983 190.49 27.2416 193.295 27.0983L189.77 40.8657ZM53.6725 10.401H1.17331L0 15.9699H17.9919L10.4656 45.8433H24.7726L32.2834 15.9699L53.6725 10.401ZM162.194 0.00976562L158.509 14.0638H151.411C149.648 14.0638 148.03 14.2071 146.412 14.3504C141.108 14.7958 136.669 16.1012 133.449 18.0107C129.011 20.6523 126.35 24.6155 125.469 29.7244C125.325 30.6161 125.181 31.3481 125.181 32.0802V33.3855C125.325 36.76 126.799 39.5449 129.315 41.5977C131.655 43.4918 135.644 43.9372 137.423 43.9372C138.304 43.9372 142.438 43.6506 146.412 42.4731C148.334 42.0277 150.097 41.3111 151.731 40.4203C149.937 40.2769 148.174 40.4203 146.412 40.4203C143.159 40.4203 140.066 39.9903 137.711 37.7941C135.789 36.0434 135.212 33.3855 135.949 29.7253C136.541 26.2238 138.015 23.5822 140.515 21.8306C142.437 20.5098 144.344 19.9211 146.412 19.4748C149.937 18.8861 153.622 19.1882 157.179 19.3315L151.731 40.4194C151.283 42.0268 150.69 43.7939 150.402 45.5601C155.112 45.5601 162.194 45.99 163.22 42.3289L174.131 0.00976562H162.194ZM72.4006 33.5443C71.6472 33.5443 70.6216 33.8309 69.4362 34.563C64.4216 37.4912 59.5659 39.4016 54.6955 40.2769C52.7887 40.579 51.0261 40.7069 49.1037 40.7069C46.5877 40.7069 44.5375 40.1336 42.9028 39.2582C41.4288 38.2395 40.5475 37.0458 40.5475 35.4547C40.5475 32.9556 41.5731 31.6348 43.4955 31.6348H46.8927C49.3923 31.6348 51.9083 31.4914 54.6964 30.9027C57.2124 30.4728 59.8562 29.7253 62.6599 28.7066C66.5055 27.2425 69.5978 25.6187 72.2416 23.5813C74.7576 21.5439 76.0873 19.6344 76.2152 17.8837V17.4383C76.0873 16.1012 75.3339 15.0988 73.8755 14.3504C72.0965 13.3317 69.7412 12.8863 66.7933 12.8863C62.9476 12.8863 58.8133 13.4751 54.6955 14.7958C53.3658 15.0979 52.0361 15.6712 50.8663 16.1012C45.4188 18.1703 40.6918 21.0831 36.8461 24.7434C32.2799 29.152 29.9402 33.3855 29.9402 37.492C29.9402 39.9911 31.2543 41.9007 33.7539 43.3648C36.4133 44.8134 39.8105 45.5609 44.0891 45.5609C47.1813 45.5609 50.7229 45.2588 54.5521 44.3672H54.6964C58.3822 43.4918 61.6188 42.4731 64.5831 41.3111C66.7941 40.2769 69.006 38.9553 70.7676 37.6345C72.69 36.1704 73.7156 35.0084 73.7156 34.26C73.7148 33.8309 73.2819 33.5443 72.4006 33.5443ZM45.4179 24.7425C46.5877 23.5805 47.9174 22.4185 49.3914 21.3843C51.154 20.0635 52.933 19.1882 54.6947 18.4561C56.7613 17.4374 58.9732 16.992 60.8956 16.992C62.3696 17.1353 63.5394 17.2941 64.4207 17.8837C65.1741 18.3136 65.6225 19.0457 65.6225 19.9211C65.6225 20.9552 64.8691 22.2606 63.2509 23.5813C61.7769 24.7434 59.8536 25.7775 57.6426 26.6529C56.6171 26.955 55.7358 27.0983 54.6947 27.4012C52.1951 27.8312 49.3914 28.1178 46.4426 28.1178C44.5357 28.1178 43.6545 27.8312 43.6545 27.4012C43.6553 26.8116 44.2325 26.0796 45.4179 24.7425Z" fill="#E8511B"/>
</g>
<defs>
<clipPath id="clip0_21_364">
<rect width="216" height="46" fill="white"/>
</clipPath>
</defs>
</svg>
