<svg width="177" height="67" viewBox="0 0 177 67" fill="none" xmlns="http://www.w3.org/2000/svg">
<g clip-path="url(#clip0_21_366)">
<path d="M19.4238 66.9264C18.4245 66.681 17.5364 65.9447 17.0221 64.9544L16.7363 64.4022L16.6752 57.2849L16.6141 50.1675L9.46759 50.1061L2.32109 50.0448L1.75792 49.7122C1.11627 49.3195 0.585498 48.7682 0.216228 48.1108C0.0171028 47.7427 0 47.2089 0 41.4549V35.1965H31.5179V66.9792L25.6541 66.9976C22.429 67.0086 19.6254 66.9755 19.4238 66.9264Z" fill="white"/>
<path d="M36.6488 49.5995C36.6145 49.5074 36.5999 46.339 36.617 42.5594L36.6488 35.6875L40.1304 35.6114C43.7256 35.5329 44.1141 35.4887 45.7914 34.8997C50.0255 33.4173 52.8646 28.8303 52.547 23.9684C52.2208 18.9569 49.2791 15.3785 44.6235 14.3183C43.4483 14.052 40.9794 14.0471 39.8079 14.3085C35.592 15.2497 32.4415 18.3126 31.3848 22.4983C31.2308 23.1119 31.1685 24.0936 31.1233 26.7013C31.0708 29.7544 31.0439 30.1065 30.8644 30.1115C29.7453 30.1421 17.2225 30.0845 17.1822 30.0476C17.0759 29.9409 17.1724 22.6063 17.2945 21.6394C18.3109 13.5231 23.4674 6.30025 30.8717 2.63113C34.5488 0.806391 37.9376 0.0161188 42.1412 0.00262037C46.2605 -0.010878 49.7348 0.738898 53.1358 2.36484C60.005 5.65355 64.5922 11.6603 66.085 19.3176C67.8051 28.153 65.1602 36.8214 58.908 42.8233C55.2761 46.3095 50.9918 48.4681 45.8989 49.3896C44.7103 49.6044 43.8062 49.6584 40.5885 49.7087C37.3707 49.759 36.7013 49.7406 36.6475 49.6019L36.6488 49.5995Z" fill="white"/>
<path d="M89.6672 57.2296C89.4831 57.1383 89.3174 57.0135 89.1786 56.8615C88.9343 56.594 88.9343 56.416 88.9343 46.0002V35.4064L89.5585 34.6885C90.8766 33.1718 93.2038 31.763 95.3478 31.1875C96.2029 30.958 96.7026 30.9089 98.1575 30.9077C100.234 30.9077 100.957 31.066 102.616 31.8894C106.686 33.908 108.717 38.6509 107.513 43.3201C106.614 46.8027 103.737 49.3956 100.061 50.0411C99.4085 50.1552 98.2479 50.2289 97.1118 50.2289C95.3857 50.2289 95.2293 50.2105 95.1132 49.992C95.0436 49.8607 94.9911 49.1122 94.9911 48.3268C94.9911 47.5414 95.0485 46.7929 95.1132 46.6616C95.2354 46.4444 95.3844 46.4248 97.0446 46.4248C99.5245 46.4248 100.518 46.118 101.733 44.9755C103.966 42.8771 104.109 38.9074 102.034 36.6409C100.83 35.3278 99.1605 34.7744 97.1472 35.0223C95.9806 35.1659 94.4804 35.896 93.7768 36.663L93.271 37.2213V47.139C93.271 54.6895 93.2356 57.0922 93.1244 57.2014C92.9559 57.3708 90.0704 57.3977 89.6672 57.2321V57.2296Z" fill="white"/>
<path d="M79.4924 50.0413C78.4931 49.824 77.5781 49.3896 76.9355 48.8264C76.2526 48.2288 75.5917 46.8814 75.4378 45.75C75.3071 44.8125 75.2619 28.0486 75.3901 27.7112C75.4866 27.4658 79.3116 25.522 79.5437 25.6103C79.6756 25.6619 79.7171 26.2337 79.7428 28.4094L79.7758 31.1447L82.3705 31.1778C85.4246 31.2171 85.1167 30.9668 85.0581 33.3535L85.0226 34.9488L82.3962 35.0163C80.951 35.0531 79.7526 35.0948 79.733 35.1083C79.7135 35.1218 79.7122 37.3552 79.733 40.0721C79.7684 44.7695 79.7819 45.0321 80.0164 45.4407C80.2141 45.7407 80.4861 45.9839 80.8056 46.1463C81.3162 46.4065 81.497 46.4224 83.8597 46.4224C85.653 46.4224 86.4165 46.4642 86.5216 46.5697C86.6266 46.6752 86.6682 47.2373 86.6682 48.3245C86.6682 49.4117 86.6205 49.9799 86.5216 50.0793C86.3054 50.2965 80.5149 50.2634 79.4862 50.0388L79.4924 50.0413Z" fill="white"/>
<path d="M122.356 49.911L121.979 49.5932V24.7573L123.949 23.7413C125.032 23.1829 125.994 22.7596 126.086 22.7915C126.228 22.8455 126.255 25.0101 126.255 36.4678C126.255 48.7673 126.237 50.089 126.062 50.154C125.956 50.1957 125.163 50.2289 124.299 50.2289C122.79 50.2289 122.711 50.2166 122.356 49.911Z" fill="white"/>
<path d="M130.935 50.1062C130.259 49.8325 130.283 50.186 130.316 40.3419L130.347 31.271H134.501L134.533 40.6512C134.557 48.0741 134.533 50.051 134.41 50.1283C134.203 50.2596 131.271 50.2412 130.935 50.1062Z" fill="white"/>
<path d="M139.218 50.0572C138.595 49.7112 138.607 49.8118 138.598 42.2159C138.598 36.3073 138.623 35.0679 138.768 34.7917C138.996 34.3561 140.334 33.0627 141.066 32.5706C142.177 31.8671 143.38 31.3216 144.64 30.9496C145.919 30.6072 148.27 30.5753 149.527 30.8846C151.103 31.2722 152.544 32.0837 153.695 33.2319C154.847 34.3802 155.665 35.8217 156.063 37.4019C156.291 38.3001 156.307 38.7591 156.307 44.2222C156.307 49.451 156.286 50.0879 156.114 50.1542C155.736 50.3002 152.327 50.2364 152.178 50.0818C152.068 49.9713 152.031 48.5515 152.031 44.4505C152.031 39.3346 152.015 38.9124 151.787 38.1799C151.163 36.1465 149.643 34.928 147.576 34.7979C145.965 34.6973 144.616 35.1599 143.463 36.2066L142.989 36.6361V43.1951C142.989 47.4815 142.945 49.8363 142.867 49.9922C142.752 50.2082 142.6 50.229 141.126 50.2241C140.019 50.2217 139.417 50.1689 139.218 50.0572Z" fill="white"/>
<path d="M160.743 50.1061C160.059 49.83 160.09 50.4853 160.124 37.09L160.155 24.7672L162.194 23.7266C163.315 23.1547 164.278 22.7314 164.332 22.7866C164.386 22.8418 164.454 26.5391 164.492 31.0083L164.553 39.1283L167.89 35.1708L171.227 31.2084H173.663C175.687 31.2084 176.097 31.2378 176.097 31.3826C176.097 31.4783 174.418 33.4687 172.365 35.8138C170.313 38.1588 168.649 40.1406 168.67 40.2314C168.691 40.3223 170.569 42.498 172.845 45.0749C175.121 47.6519 176.991 49.8607 176.999 49.9687C177.012 50.143 176.726 50.17 174.536 50.1994L172.059 50.2325L171.787 49.9344C171.638 49.7711 169.977 47.7574 168.096 45.4602C166.214 43.1631 164.634 41.288 164.583 41.277C164.533 41.2659 164.492 43.1778 164.492 45.5118C164.492 48.2004 164.445 49.8399 164.37 49.9908C164.255 50.2068 164.105 50.2264 162.629 50.2203C161.742 50.2203 160.894 50.1638 160.748 50.1037L160.743 50.1061Z" fill="white"/>
<path d="M112.664 42.6513C112.357 42.3028 110.728 38.7797 110.795 38.6018C110.844 38.4791 111.611 38.4472 114.615 38.4791L118.375 38.511L118.408 40.5885C118.434 42.1679 118.408 42.6882 118.286 42.7642C118.201 42.8195 116.943 42.8649 115.492 42.8649C113.133 42.8661 112.835 42.844 112.664 42.6513Z" fill="white"/>
<path d="M130.202 26.8521C129.785 26.5588 129.515 25.6864 129.577 24.8311C129.643 23.9119 130.086 23.2211 130.952 22.6823C131.472 22.3596 131.662 22.3142 132.418 22.3142C133.377 22.3142 134.006 22.5719 134.59 23.1892C135.49 24.1426 135.55 25.8643 134.712 26.8202C134.549 27.008 134.276 27.035 132.495 27.035C130.889 27.035 130.41 26.9969 130.203 26.8509L130.202 26.8521Z" fill="white"/>
</g>
<defs>
<clipPath id="clip0_21_366">
<rect width="177" height="67" fill="white"/>
</clipPath>
</defs>
</svg>
