<svg width="216" height="216" viewBox="0 0 216 216" fill="none" xmlns="http://www.w3.org/2000/svg">
<path d="M166.126 81.9937L167.27 75.5569H30.9744L29.7864 82.0153" fill="url(#paint0_linear_21_379)"/>
<path d="M62.0136 87.4153L63.2664 80.8489H199.476L198.266 88.2361L62.0136 87.4153Z" fill="url(#paint1_linear_21_379)"/>
<path d="M34.0632 86.076L170.575 86.0544L169.387 93.1176L33.0696 92.34L34.0632 86.076Z" fill="url(#paint2_linear_21_379)"/>
<path d="M47.6496 107.071L50.2848 91.8648L186.602 91.8L183.967 107.071H47.6496Z" fill="url(#paint3_linear_21_379)"/>
<path d="M12.3984 135.302H18.36L22.572 109.75L35.2512 109.728L36.2016 104.479H8.96402L8.03522 109.75H16.3944L12.3984 135.302Z" fill="url(#paint4_linear_21_379)"/>
<path d="M28.7928 113.076H33.804C33.804 113.076 34.0848 115.668 34.236 115.69C34.3872 115.711 34.6032 115.69 34.6032 115.69C34.6032 115.69 38.232 112.795 40.6728 112.795C43.1352 112.795 43.6536 112.795 43.6536 112.795L42.8976 118.757C42.8976 118.757 37.3032 117.914 35.4024 119.426C33.5232 120.938 33.3288 121.025 32.8968 123.746C32.4648 126.468 31.2768 135.281 31.2768 135.281H25.1424L28.7928 113.076Z" fill="url(#paint5_linear_21_379)"/>
<path d="M55.0584 112.558C47.2392 112.558 44.6904 117.202 43.3512 124.394C42.012 131.587 46.5912 135.324 46.5912 135.324H53.46C53.9784 135.324 56.5704 133.466 56.5704 133.466L57.4128 135.324H62.2512L64.9944 115.258C64.9944 115.214 62.8776 112.558 55.0584 112.558ZM57.0456 128.758C57.0456 128.758 54.9072 131.047 51.84 131.004C51.84 131.004 48.168 131.198 49.2696 125.086C50.3712 118.973 51.9912 117.115 54.9504 117.18C57.9096 117.223 58.7088 117.936 58.7088 117.936L57.0456 128.758Z" fill="url(#paint6_linear_21_379)"/>
<path d="M71.496 135.302H65.5128L68.9256 113.098H73.764L74.7576 115.517C74.7576 115.517 78.3432 112.428 82.7712 112.558C87.1992 112.687 88.344 115.582 88.1064 118.303C87.8688 121.025 85.6872 135.302 85.6872 135.302H79.488L81.864 119.966C81.864 119.966 82.3176 117.353 79.8552 117.353C77.4144 117.353 74.196 118.649 74.0664 119.297C73.9584 119.923 71.496 135.302 71.496 135.302Z" fill="url(#paint7_linear_21_379)"/>
<path d="M90.0504 131.112L89.5968 134.114C89.5968 134.114 89.1864 135.259 90.6984 135.302C92.2104 135.346 105.538 135.324 105.538 135.324C105.538 135.324 107.849 134.093 108.281 131.09C108.691 128.088 110.117 121.824 104.393 121.889C98.6688 121.954 97.6104 121.889 97.6104 121.889C97.6104 121.889 95.904 121.889 96.552 120.182C97.2216 118.476 97.2216 117.418 98.7768 117.418C100.332 117.418 109.102 117.418 109.102 117.418L109.836 113.854C109.836 113.854 102.578 112.342 99.0576 112.536C95.5368 112.73 92.2752 112.406 91.152 118.066C90.0072 123.725 90.8712 126.878 95.04 126.878C99.2088 126.878 101.563 126.965 101.563 126.965C101.563 126.965 103.054 126.706 102.838 128.239C102.622 129.773 102.708 131.112 100.375 131.134C98.0208 131.155 90.0504 131.112 90.0504 131.112Z" fill="url(#paint8_linear_21_379)"/>
<path d="M131.09 117.634L131.587 114.048C131.587 114.048 123.854 112.515 121.284 112.536C118.714 112.558 114.394 112.839 112.666 120.723C110.959 128.607 110.851 135.324 118.044 135.324C125.237 135.346 126.317 135.324 126.317 135.324C126.317 135.324 128.758 134.806 128.952 133.488C129.146 132.192 129.276 130.788 129.276 130.788C129.276 130.788 125.237 131.415 123.055 131.328C120.874 131.242 116.446 132.538 118.022 124.805C119.599 117.072 120.982 117.331 122.882 117.375C124.783 117.418 131.09 117.634 131.09 117.634Z" fill="url(#paint9_linear_21_379)"/>
<path d="M152.669 119.124C152.755 117.569 153.554 112.601 143.035 112.514C132.516 112.45 132.581 121.738 131.868 127.267C131.155 132.797 135.065 135.324 135.065 135.324C135.065 135.324 145.476 135.281 147.485 135.302C149.494 135.324 149.926 133.92 149.926 133.92L150.466 130.572C147.744 131.22 142.97 131.242 139.968 131.134C136.966 131.047 137.894 126.9 137.894 126.9C152.712 128.995 152.582 120.679 152.669 119.124ZM143.273 117.353C146.945 117.353 146.729 118.908 146.707 119.405C146.707 119.405 147.247 123.163 141.523 123.163C141.523 123.163 138.715 123.163 138.478 122.99C138.478 122.99 138.37 117.266 143.273 117.353Z" fill="url(#paint10_linear_21_379)"/>
<path d="M153.533 135.346L156.989 113.098H161.914L162.67 115.409C162.67 115.409 166.73 112.471 170.402 112.536C174.053 112.579 176.148 114.502 175.932 118.001C175.716 121.5 173.448 135.346 173.448 135.346H167.465L169.841 120.053C169.841 120.053 170.122 117.31 167.875 117.31C165.607 117.31 162.022 118.994 161.935 119.405C161.849 119.815 159.516 135.324 159.516 135.324H153.533V135.346Z" fill="url(#paint11_linear_21_379)"/>
<path d="M196.214 102.103C196.214 102.103 194.378 112.709 194.162 114.091C192.478 112.536 187.596 112.514 187.596 112.514C178.74 112.471 178.416 122.429 178.092 127.98C177.768 133.531 181.267 135.324 181.267 135.324C181.267 135.324 186.991 135.389 187.747 135.324C188.503 135.259 191.333 133.466 191.333 133.466L191.765 135.324H196.906L202.111 102.103H196.214ZM193.579 118.303L191.83 129.449C191.83 129.449 189.108 131.112 186.322 131.026C183.535 130.939 183.816 127.613 183.967 126.576C184.118 125.518 184.658 116.402 188.957 117.158C193.255 117.893 193.622 118.087 193.579 118.303Z" fill="url(#paint12_linear_21_379)"/>
<defs>
<linearGradient id="paint0_linear_21_379" x1="29.7767" y1="78.7834" x2="167.274" y2="78.7834" gradientUnits="userSpaceOnUse">
<stop stop-color="#E01F26"/>
<stop offset="1" stop-color="#8F1A1C"/>
</linearGradient>
<linearGradient id="paint1_linear_21_379" x1="62.0168" y1="84.5357" x2="199.486" y2="84.5357" gradientUnits="userSpaceOnUse">
<stop stop-color="#159C49"/>
<stop offset="1" stop-color="#06522A"/>
</linearGradient>
<linearGradient id="paint2_linear_21_379" x1="33.0672" y1="89.5866" x2="170.575" y2="89.5866" gradientUnits="userSpaceOnUse">
<stop stop-color="#F8E906"/>
<stop offset="1" stop-color="#EC9322"/>
</linearGradient>
<linearGradient id="paint3_linear_21_379" x1="47.6597" y1="99.4382" x2="186.598" y2="99.4382" gradientUnits="userSpaceOnUse">
<stop stop-color="#2EA9E1"/>
<stop offset="1" stop-color="#1C4690"/>
</linearGradient>
<linearGradient id="paint4_linear_21_379" x1="26.5964" y1="130.242" x2="20.5066" y2="102.736" gradientUnits="userSpaceOnUse">
<stop stop-color="#B4B3B3"/>
<stop offset="1" stop-color="#B4B3B3"/>
</linearGradient>
<linearGradient id="paint5_linear_21_379" x1="36.6293" y1="134.115" x2="31.8232" y2="112.407" gradientUnits="userSpaceOnUse">
<stop stop-color="#B4B3B3"/>
<stop offset="1" stop-color="#B4B3B3"/>
</linearGradient>
<linearGradient id="paint6_linear_21_379" x1="57.2934" y1="136.397" x2="52.0728" y2="112.818" gradientUnits="userSpaceOnUse">
<stop stop-color="#B4B3B3"/>
<stop offset="1" stop-color="#B4B3B3"/>
</linearGradient>
<linearGradient id="paint7_linear_21_379" x1="79.171" y1="136.741" x2="73.7011" y2="112.036" gradientUnits="userSpaceOnUse">
<stop stop-color="#B4B3B3"/>
<stop offset="1" stop-color="#B4B3B3"/>
</linearGradient>
<linearGradient id="paint8_linear_21_379" x1="102.339" y1="136.043" x2="97.1265" y2="112.498" gradientUnits="userSpaceOnUse">
<stop stop-color="#B4B3B3"/>
<stop offset="1" stop-color="#B4B3B3"/>
</linearGradient>
<linearGradient id="paint9_linear_21_379" x1="124.722" y1="135.686" x2="119.609" y2="112.595" gradientUnits="userSpaceOnUse">
<stop stop-color="#B4B3B3"/>
<stop offset="1" stop-color="#B4B3B3"/>
</linearGradient>
<linearGradient id="paint10_linear_21_379" x1="145.004" y1="135.975" x2="139.882" y2="112.842" gradientUnits="userSpaceOnUse">
<stop stop-color="#B4B3B3"/>
<stop offset="1" stop-color="#B4B3B3"/>
</linearGradient>
<linearGradient id="paint11_linear_21_379" x1="167.108" y1="136.746" x2="161.643" y2="112.063" gradientUnits="userSpaceOnUse">
<stop stop-color="#B4B3B3"/>
<stop offset="1" stop-color="#B4B3B3"/>
</linearGradient>
<linearGradient id="paint12_linear_21_379" x1="194.504" y1="135.875" x2="187.457" y2="104.046" gradientUnits="userSpaceOnUse">
<stop stop-color="#B4B3B3"/>
<stop offset="1" stop-color="#B4B3B3"/>
</linearGradient>
</defs>
</svg>
